<?xml version="1.0" encoding="UTF-8" standalone="no"?>
<svg
   version="1.1"
   x="0px"
   y="0px"
   viewBox="0 0 100 100"
   enable-background="new 0 0 100 100"
   xml:space="preserve"
   id="svg10"
   sodipodi:docname="noun-stork-4951213-brand-mania.svg"
   inkscape:version="1.2.2 (b0a8486541, 2022-12-01)"
   width="100"
   height="100"
   xmlns:inkscape="http://www.inkscape.org/namespaces/inkscape"
   xmlns:sodipodi="http://sodipodi.sourceforge.net/DTD/sodipodi-0.dtd"
   xmlns="http://www.w3.org/2000/svg"
   xmlns:svg="http://www.w3.org/2000/svg"><defs
     id="defs14" /><sodipodi:namedview
     id="namedview12"
     pagecolor="#ffffff"
     bordercolor="#000000"
     borderopacity="0.25"
     inkscape:showpageshadow="2"
     inkscape:pageopacity="0.0"
     inkscape:pagecheckerboard="0"
     inkscape:deskcolor="#d1d1d1"
     showgrid="false"
     inkscape:zoom="6.68"
     inkscape:cx="24.101796"
     inkscape:cy="56.062874"
     inkscape:window-width="1920"
     inkscape:window-height="1016"
     inkscape:window-x="0"
     inkscape:window-y="0"
     inkscape:window-maximized="1"
     inkscape:current-layer="svg10" /><g
     id="g4"
     transform="translate(1.2777641,-0.412)"><path
       d="m 86.95,64.553 c -0.243,-1.52 -1.061,-2.852 -2.301,-3.749 L 79.23,56.882 c -0.563,-0.408 -1.132,-0.809 -1.701,-1.209 -1.275,-0.898 -2.596,-1.827 -3.812,-2.821 -0.14,-0.113 -0.291,-0.229 -0.447,-0.349 -0.452,-0.343 -1.071,-0.813 -1.092,-1.146 -0.019,-0.296 -0.007,-0.592 0.003,-0.889 0.014,-0.414 0.028,-0.842 -0.017,-1.297 -0.306,-3.15 -1.684,-6.386 -4.095,-9.618 -2.412,-3.231 -5.567,-6.051 -9.379,-8.381 -5.913,-3.614 -12.338,-5.327 -17.833,-4.787 0.07,-1.979 0.381,-3.937 0.927,-5.834 3.399,-1.146 5.727,-4.346 5.727,-7.972 0,-4.644 -3.778,-8.422 -8.422,-8.422 -4.463,0 -8.117,3.492 -8.395,7.887 L 10.42,26.462 11.408,28.19 33.096,18.484 c 0.456,0.463 0.962,0.881 1.522,1.232 -3.467,4.552 -5.364,10.148 -5.364,15.895 0,11.41 7.321,21.139 17.51,24.748 l 2.874,6.336 H 35.013 v 11.951 l 5.988,-6.932 h 10.915 l 1.475,3.252 v 21.701 h 4.563 V 75.209 l 1.858,-13.718 c 0.445,-0.075 0.89,-0.16 1.334,-0.258 l 8.9,6.441 c 1.581,1.144 3.611,1.389 5.428,0.686 l 2.432,1.761 c 0.986,0.714 2.15,1.087 3.352,1.087 0.308,0 0.618,-0.024 0.929,-0.074 1.521,-0.243 2.852,-1.061 3.748,-2.3 0.899,-1.24 1.259,-2.761 1.015,-4.281 z M 40.543,13.244 h -3.118 v -2 h 3.118 z"
       id="path2" /></g></svg>
