<?xml version="1.0" encoding="UTF-8" standalone="no"?>
<svg
   version="1.1"
   viewBox="-5 -10 110 110"
   id="svg8"
   sodipodi:docname="noun-baby-6828093-firza-alamsyah.svg"
   inkscape:version="1.2.2 (b0a8486541, 2022-12-01)"
   width="110"
   height="110"
   xmlns:inkscape="http://www.inkscape.org/namespaces/inkscape"
   xmlns:sodipodi="http://sodipodi.sourceforge.net/DTD/sodipodi-0.dtd"
   xmlns="http://www.w3.org/2000/svg"
   xmlns:svg="http://www.w3.org/2000/svg">
  <defs
     id="defs12" />
  <sodipodi:namedview
     id="namedview10"
     pagecolor="#ffffff"
     bordercolor="#000000"
     borderopacity="0.25"
     inkscape:showpageshadow="2"
     inkscape:pageopacity="0.0"
     inkscape:pagecheckerboard="0"
     inkscape:deskcolor="#d1d1d1"
     showgrid="false"
     inkscape:zoom="6.1851852"
     inkscape:cx="27"
     inkscape:cy="53.434132"
     inkscape:window-width="1920"
     inkscape:window-height="1016"
     inkscape:window-x="0"
     inkscape:window-y="0"
     inkscape:window-maximized="1"
     inkscape:current-layer="svg8" />
  <path
     d="M 79.309639,32.443973 21.422252,72.228379 C 24.392041,85.271 36.056028,95 49.995742,95 h 0.01293 C 66.189466,95 79.31043,81.879036 79.31043,65.698241 Z M 20.68957,31.439669 v 34.253982 c 0,0.931025 0.0431,1.853443 0.129312,2.762895 L 47.224119,50.310531 Z m 0,-4.232672 29.559963,21.025984 29.060106,-19.974409 V 24.301759 C 79.309639,8.120964 66.188674,-5 50.00788,-5 H 49.99495 C 33.814156,-5 20.693191,8.120964 20.693191,24.301759 v 2.905127 z M 31.551579,14.289065 c -3.366364,0.301723 -6.00424,3.129235 -6.00424,6.568868 0,3.439633 2.637876,6.267189 6.00424,6.568868 2.698234,7.57752 9.94384,13.012828 18.448356,13.012828 8.504517,0 15.749351,-5.435308 18.448357,-13.012828 3.366364,-0.301723 6.00424,-3.129235 6.00424,-6.568868 0,-3.439633 -2.637876,-6.267189 -6.00424,-6.568868 -2.698234,-7.57752 -9.94384,-13.012828 -18.448357,-13.012828 -8.504516,0 -15.74935,5.435308 -18.448356,13.012828 z m 1.02154,3.452542 c 0.853442,0.11638 1.659458,-0.413788 1.887869,-1.241366 1.905194,-6.788673 8.146452,-11.775875 15.538594,-11.775875 7.392143,0 13.632959,4.986982 15.538594,11.775875 0.232759,0.827578 1.038787,1.357779 1.88787,1.241366 0.142244,-0.02155 0.284477,-0.02586 0.431024,-0.02586 1.732727,0 3.14656,1.405116 3.14656,3.14656 0,1.737029 -1.409419,3.146559 -3.14656,3.146559 -0.146547,0 -0.288791,-0.0086 -0.431024,-0.02586 -0.853442,-0.11638 -1.659458,0.413789 -1.88787,1.241366 -1.905193,6.788673 -8.146451,11.775875 -15.538594,11.775875 -7.392142,0 -13.632959,-4.986981 -15.538594,-11.775875 -0.232759,-0.827577 -1.038786,-1.357779 -1.887869,-1.241366 -0.142244,0.02155 -0.284477,0.02586 -0.431025,0.02586 -1.732726,0 -3.14656,-1.405116 -3.14656,-3.146559 0,-1.73703 1.40942,-3.14656 3.14656,-3.14656 0.146548,0 0.288792,0.0086 0.431025,0.02586 z m 11.948011,-0.52155 c -0.400856,0 -0.780163,0.168098 -1.077572,0.491371 -0.318959,0.344824 -0.547404,0.892228 -0.547404,1.521529 0,0.629301 0.232759,1.176705 0.547404,1.521529 0.297409,0.327588 0.676716,0.495686 1.077572,0.495686 0.396553,0 0.775848,-0.168098 1.077572,-0.495686 0.318959,-0.344824 0.547404,-0.892228 0.547404,-1.521529 0,-0.629301 -0.232759,-1.176705 -0.547404,-1.521529 -0.301724,-0.323273 -0.68103,-0.491371 -1.077572,-0.491371 z m 10.956794,0 c -0.396553,0 -0.775848,0.168098 -1.077572,0.491371 -0.318959,0.344824 -0.547404,0.892228 -0.547404,1.521529 0,0.629301 0.232759,1.176705 0.547404,1.521529 0.301724,0.327588 0.68103,0.495686 1.077572,0.495686 0.400857,0 0.780163,-0.168098 1.077572,-0.495686 0.31896,-0.344824 0.547404,-0.892228 0.547404,-1.521529 0,-0.629301 -0.232759,-1.176705 -0.547404,-1.521529 -0.297409,-0.323273 -0.676715,-0.491371 -1.077572,-0.491371 z M 46.538322,6.004728 c -1.685278,2.301658 -1.698299,4.60773 0.0043,6.909388 0.56465,0.767231 1.646548,0.931025 2.409464,0.366374 0.76723,-0.56465 0.92671,-1.646548 0.366374,-2.409464 C 48.620194,9.927069 48.633127,8.983157 49.32276,8.04347 49.883097,7.27624 49.714999,6.194331 48.947768,5.634006 48.180538,5.0736698 47.102933,5.2374529 46.542608,6.004694 Z m 5.030126,0 c -1.685278,2.301658 -1.698299,4.60773 0.0043,6.909388 0.56465,0.767231 1.646548,0.931025 2.409464,0.366374 0.76723,-0.56465 0.92671,-1.646548 0.366374,-2.409464 C 53.65032,9.927069 53.663253,8.983157 54.352886,8.04347 54.913223,7.27624 54.745125,6.194331 53.977895,5.634006 53.210664,5.0736698 52.133059,5.2374529 51.572734,6.004694 Z"
     fill-rule="evenodd"
     id="path2"
     style="stroke-width:1.10344" />
</svg>
