<?xml version="1.0" encoding="UTF-8" standalone="no"?>
<!-- Created with Inkscape (http://www.inkscape.org/) -->
<svg xmlns:dc="http://purl.org/dc/elements/1.1/" xmlns:cc="http://creativecommons.org/ns#" xmlns:rdf="http://www.w3.org/1999/02/22-rdf-syntax-ns#" xmlns:svg="http://www.w3.org/2000/svg" xmlns="http://www.w3.org/2000/svg" xmlns:xlink="http://www.w3.org/1999/xlink" version="1.1" width="180" height="280" viewBox="0 0 180 280" id="svg10047">
  <metadata id="metadata16869">
    <rdf:RDF>
      <cc:Work rdf:about="">
        <dc:format>image/svg+xml</dc:format>
        <dc:type rdf:resource="http://purl.org/dc/dcmitype/StillImage"/>
        <dc:title/>
      </cc:Work>
    </rdf:RDF>
  </metadata>
  <defs id="defs3059">

    <g transform="translate(94,-27.401867)" id="odd-top-support">
      <path d="m -95,20.625 0,5.125 0,5.5625 -2.0625,-1.875 c -1.47893,-1.338409 -4.04717,-1.975437 -8.90625,-2.25 l -6.46875,-0.375 0,1.1875 5.09375,0 c 6.77279,0 10.14931,1.359095 10.90625,4.375 0.667823,3.512391 -0.728497,4.532299 1.8125,4.6875 1.970497,0.120356 1.612131,-0.136862 1.625,-1.4375 0,-5.54677 1.88434,-6.998308 9.65625,-7.4375 l 6.65625,-0.375 0,-1 -6.34375,0.375 c -4.85908,0.274563 -7.42732,0.911591 -8.90625,2.25 l -2.0625,1.875 0,-5.5625 0,-5.125 z" id="path17556-1-2" style="fill:#9b0000"/>
      <path d="m -95,20.625 0,1.78125 c 0.08163,0.721514 0.140793,1.637743 0.1875,2.9375 L -94.625,30.5 -94.28125,25.34375 C -94.192786,24.09245 -94.106529,23.2108 -94,22.5 l 0,-1.875 -1,0 z m -17.4375,6.375 0,0.8125 6.78125,0.375 c 5.36007,0.302871 7.20221,0.816245 8.375,2.34375 0.90639,1.180526 1.3296,1.371683 1.0625,0.46875 -0.72301,-2.444142 -4.91205,-3.98427 -10.9375,-4 l -5.28125,0 z m 30.59375,0 c -6.02545,0.01573 -10.21449,1.555858 -10.9375,4 -0.2671,0.902933 0.15612,0.711776 1.0625,-0.46875 1.17279,-1.527505 3.01493,-2.040879 8.375,-2.34375 l 6.65625,-0.375 0,-0.8125 -5.15625,0 z" id="path17554-7-8" style="fill:#009800"/>
    </g>
    <g id="odd-top-spade">
      <use id="odd-top-spade-support" x="0" y="0" width="1027" height="615" xlink:href="#odd-top-support"/>
      <use transform="matrix(0,-1,-1,0,20,0)" id="odd-top-spade-right" x="0" y="0" width="1027" height="615" xlink:href="#sl"/>
      <use transform="matrix(0,-1,1,0,-20,0)" id="odd-top-spade-left" x="0" y="0" width="1027" height="615" xlink:href="#sl"/>
      <use transform="matrix(-1,0,0,1,-0.4,-8)" id="odd-top-spade-top" x="0" y="0" width="1027" height="615" xlink:href="#sl"/>
    </g>
    <g id="cf">
      <path d="m 78.25,117.25 c 0,2.762 -2.238,5 -5,5 H 5.75 c -2.761,0 -5,-2.238 -5,-5 V 5.75 c 0,-2.762 2.239,-5 5,-5 h 67.5 c 2.762,0 5,2.238 5,5 v 111.5 z" id="path8383" style="fill:#ffffff;stroke:#000000;stroke-width:1.5"/>
      <path d="m 72.226712,114.23425 c 0,2.61259 -1.890126,4.72953 -4.222801,4.72953 H 10.996089 c -2.3318303,0 -4.2228009,-2.11694 -4.2228009,-4.72953 V 8.7657498 c 0,-2.6125922 1.8909706,-4.7295293 4.2228009,-4.7295293 h 57.007822 c 2.332675,0 4.222801,2.1169371 4.222801,4.7295293 V 114.23425 z" id="path10068" style="fill:#ffffff;stroke:#000000;stroke-width:1"/>
    </g>
    <g transform="matrix(-1,0,0,-1,-54.7,125.7098)" id="sl">
      <path d="m -55.25,118.65625 c -0.395568,1.06793 -1.148622,1.08315 -3,1 -2.3326,-0.10477 -3.286311,0.33957 -3.5625,1.6875 -0.631234,3.08072 0.690447,6.45372 3.96875,10.1875 l 3.125,3.5625 2.78125,-2.65625 c 3.331613,-3.19189 5.235439,-7.3857 4.78125,-10.59375 -0.275883,-1.94862 -0.893036,-2.31003 -3.59375,-2.1875 -1.955657,0.0887 -2.742953,0.11592 -3.09375,-1 l -1.40625,0 z" id="path5833" style="fill:#009800"/>
      <path d="m 1.8125,-6.78125 -2.34375,2 C -6.560052,0.32008 -7.222579,8.78997 -2.65625,8.5625 -2.003917,8.53 -1.240062,8.32894 -0.375,7.90625 c 1.906609,-0.93163 1.760773,-0.99451 -1.0625,-0.5 -3.002478,0.5259 -3.25,0.36081 -3.25,-2.125 0,-3.0795 1.326818,-5.98672 4.375,-9.5625 l 2.125,-2.5 z M 1.90625,-6.3125 1.71875,0.71875 C 1.6609561,2.8917995 -2,-0.40625 -2,-0.40625 -2,-0.40624929 0.42115553,2.2201295 1.5,1.75 1.9444621,1.8952379 1.571078,2.9991345 1.65625,3.6875 1.7923646,4.7875911 1.750814,5.0562184 0.78125,4.625 -0.18831439,4.1937816 -1.5849481,4.188967 -2.78125,4 c 1.2509513,0.295075 2.49904869,0.2593374 3.75,1 0.435704,0.1018058 0.8052698,0.3670812 0.75,1.15625 l -0.25,1.75 c 0.118392,0.3977563 0.088671,1.0649278 0.375,0.875 C 2.1300791,8.5913222 1.0928515,5.8484711 3.125,4.625 L 7.0625,2.53125 c -1.3260084,0.6004566 -2.7614041,0.7995693 -4,1.8125 C 1.8239041,5.3566807 1.941421,4.7789823 1.96875,3.5625 1.996079,2.3460172 1.8859064,2.7587412 2.0625,2.28125 1.9965235,0.9007439 5.836,-1.28254 5.84375,-1.28125 c -1.1508752,0.73806126 -2.0595898,0.62899049 -2.5,1.25 -0.9386081,1.3235035 -1.0999845,1.00681765 -1.25,-0.5625 C 1.9437344,-2.1630676 1.90625,-6.3125 1.90625,-6.3125 z" transform="matrix(-1,0,0,-1,-52.7,127.7098)" id="path17552-0" style="fill:#000000"/>
    </g>
    <g transform="translate(54,-36.439098)" id="green-middle">
      <path d="M -56.15625,36.6875 C -56.451819,38.369963 -56.780215,38.447605 -59,37.3125 -60.375,36.609383 -63.99375,36.0081 -67.03125,36 l -5.5,0 0,1 5.1875,0 c 6.772784,0 10.149306,1.359095 10.90625,4.375 0.868261,2.869294 -0.573956,4.555172 1.828125,4.5625 1.406199,0 1.578292,-0.100605 1.609375,-1.3125 0,-5.54677 1.884336,-6.998308 9.65625,-7.4375 l 6.875,-0.375 0,-0.8125 -5.5,0 c -3.0375,0.0034 -6.76875,0.648505 -8.28125,1.4375 -2.73013,1.424168 -2.75,1.413583 -2.75,-1.8125 0.101995,-2.082984 0.143142,-4.376005 -1.567603,-4.376005 -2.395924,0 -1.288859,3.592791 -1.588647,5.438505 z" id="rect6106-4" style="color:#000000;fill:#9b0000;fill-opacity:1;fill-rule:nonzero;stroke:#000000;stroke-width:0;stroke-linecap:butt;stroke-linejoin:miter;stroke-miterlimit:4;stroke-opacity:1;stroke-dasharray:none;stroke-dashoffset:0;marker:none;visibility:visible;display:inline;overflow:visible;enable-background:accumulate"/>
      <path d="m -72.53125,36 0,0.8125 6.875,0.375 c 5.360065,0.302871 7.202212,0.816245 8.375,2.34375 0.906385,1.180526 1.329601,1.371683 1.0625,0.46875 -0.718603,-2.42924 -4.899902,-3.98421 -10.8125,-4 z m 30.5625,0 c -5.912598,0.01578 -10.093897,1.57076 -10.8125,4 -0.267101,0.902933 0.156115,0.711776 1.0625,-0.46875 1.172788,-1.527505 3.014935,-2.040879 8.375,-2.34375 l 6.875,-0.375 0,-0.8125 z" id="rect6106" style="color:#000000;fill:#009800;fill-opacity:1;fill-rule:nonzero;stroke:#000000;stroke-width:0;stroke-linecap:butt;stroke-linejoin:miter;stroke-miterlimit:4;stroke-opacity:1;stroke-dasharray:none;stroke-dashoffset:0;marker:none;visibility:visible;display:inline;overflow:visible;enable-background:accumulate"/>
    </g>
    <g id="green-middle-spade">
      <use id="green-middle-spade-support" x="0" y="0" width="1027" height="615" xlink:href="#green-middle"/>
      <use transform="matrix(0,-1,-1,0,20,0)" id="green-middle-spade-right" x="0" y="0" width="1027" height="615" xlink:href="#sl"/>
      <use transform="matrix(0,-1,1,0,-20,0)" id="green-middle-spade-left" x="0" y="0" width="1027" height="615" xlink:href="#sl"/>
    </g>
    <path d="m -1.0670015,-0.78036012 0,3.21875012 -3.09375,-1.53125017 c -3.234346,-1.61350401 -10.3026155,-1.322386 -12.1250015,0.50000017 -0.571494,0.571496 0.67247,0.535844 3.03125,-0.09375 2.62809,-0.70147818 5.0958535,-0.76072718 7.3125015,-0.1250001 3.226841,0.9254451 3.728199,1.6906671 5.49999984,8.2187501 0.521402,1.921065 2.37500016,0.409853 2.37500016,-1.9375 0,-5.451574 5.801962,-8.20450115 12.7812485,-6.0625 2.333378,0.716138 3.180661,0.743161 2.5,0.0625 C 15.331283,-0.41332417 8.315706,-0.73360815 5.0267485,0.90713983 l -3.09375,1.53125017 0,-3.21875012 c 0.0077,-3.05923288 0.35725,-4.31078378 -1.50000006,-4.31078378 -1.85724994,0 -1.51001594,2.2181209 -1.49999994,4.31078378 z" transform="translate(-1,0)" id="brown-bottom" style="color:#000000;fill:#9b0000;fill-opacity:1;fill-rule:nonzero;stroke:#000000;stroke-width:0;stroke-linecap:butt;stroke-linejoin:miter;stroke-miterlimit:4;stroke-opacity:1;stroke-dasharray:none;stroke-dashoffset:0;marker:none;visibility:visible;display:inline;overflow:visible;enable-background:accumulate"/>
    <g id="indicator-background">
      <path d="M 4.9840521,32.578091 C 1.870653,29.325097 2.1087365,23.444548 5.4655326,20.6857 c 2.2986147,-1.889165 5.5112604,-0.81715 6.9669734,2.324782 3.118592,6.731 -2.8390681,14.383666 -7.4484539,9.567609 z" id="path6341-2" style="stroke:#000000"/>
    </g>
    <g transform="matrix(0.34594092,0,0,0.34594092,-163.18455,-84.57127)" id="letter-7">
      <path d="m 499.31654,338.37114 c -0.38987,-0.38987 -0.70885,-5.75375 -0.70885,-11.91974 0,-13.00084 -0.3494,-13.83767 -8.38565,-14.44081 -4.29569,-0.3224 -4.95367,0.76881 -5.11435,-2.51497 -0.11208,-2.29066 0.76686,-2.04431 5.20183,-2.30059 6.28356,-0.3631 10.63469,1.61689 12.81387,5.83095 1.18911,2.29948 1.48381,5.61026 1.26693,14.23307 -0.26263,10.44133 -0.42709,11.25725 -2.32378,11.52875 -1.12263,0.1607 -2.36013,-0.0268 -2.75,-0.41666 z" id="path6146" style="fill:#000000"/>
      <path d="m 502.60769,325.9187 c 0,-10.90958 0.20543,-12.1546 -2.24861,-14.47706 -2.45404,-2.32246 -4.2311,-2.66172 -8.87512,-3.03645 -6.60876,-0.53327 -5.65546,2.04177 -3.61004,2.15279 5.37318,0.29163 8.67528,0.0376 10.75921,2.46308 1.59139,1.85223 1.97456,3.35513 1.97456,12.97456 0,6.66667 0.39394,11 1,11 0.60648,0 1,-4.35897 1,-11.07692 z" id="path6148" style="fill:#ffffff"/>
    </g>
    <g transform="translate(-0.975,-6)" id="it7">
      <use id="use8664" x="0" y="0" width="1027" height="615" xlink:href="#indicator-background"/>
      <use id="use8666" x="0" y="0" width="1027" height="615" xlink:href="#letter-7"/>
    </g>
    <g id="ib7">
      <use transform="matrix(-1,0,0,-1,79,123)" id="use8717" x="0" y="0" width="1027" height="615" xlink:href="#it7"/>
    </g>
  <g id="7_spade">
    <use id="use10938" x="474" y="369" width="1027" height="615" xlink:href="#cf"/>
    <use transform="translate(514,415)" id="use9537" x="0" y="0" width="1027" height="615" xlink:href="#brown-bottom"/>
    <use transform="translate(514,407)" id="use9539" x="0" y="0" width="1027" height="615" xlink:href="#green-middle-spade"/>
    <use transform="translate(514,399)" id="use9541" x="0" y="0" width="1027" height="615" xlink:href="#green-middle-spade"/>
    <use transform="translate(514,391)" id="use9543" x="0" y="0" width="1027" height="615" xlink:href="#odd-top-spade"/>
    <use transform="matrix(-1,0,0,-1,513,446)" id="use9545" x="0" y="0" width="1027" height="615" xlink:href="#brown-bottom"/>
    <use transform="matrix(-1,0,0,-1,513,454)" id="use9547" x="0" y="0" width="1027" height="615" xlink:href="#green-middle-spade"/>
    <use transform="matrix(-1,0,0,-1,513,462)" id="use9549" x="0" y="0" width="1027" height="615" xlink:href="#green-middle-spade"/>
    <use transform="matrix(-1,0,0,-1,513,470)" id="use9551" x="0" y="0" width="1027" height="615" xlink:href="#odd-top-spade"/>
    <use id="use10940" style="fill:#00a000" x="474" y="369" width="1027" height="615" xlink:href="#it7"/>
    <use id="use10942" style="fill:#00a000" x="474" y="369" width="1027" height="615" xlink:href="#ib7"/>
  </g>
  </defs>
  <use xlink:href="#7_spade" transform="scale(180,280)scale(0.0126582278481, 0.00813008130081)translate(-474,-369)"/>
</svg>