<?xml version="1.0" encoding="UTF-8" standalone="no"?>
<!-- Created with Inkscape (http://www.inkscape.org/) -->
<svg xmlns:dc="http://purl.org/dc/elements/1.1/" xmlns:cc="http://creativecommons.org/ns#" xmlns:rdf="http://www.w3.org/1999/02/22-rdf-syntax-ns#" xmlns:svg="http://www.w3.org/2000/svg" xmlns="http://www.w3.org/2000/svg" xmlns:xlink="http://www.w3.org/1999/xlink" version="1.1" width="180" height="280" viewBox="0 0 180 280" id="svg10047">
  <metadata id="metadata16869">
    <rdf:RDF>
      <cc:Work rdf:about="">
        <dc:format>image/svg+xml</dc:format>
        <dc:type rdf:resource="http://purl.org/dc/dcmitype/StillImage"/>
        <dc:title/>
      </cc:Work>
    </rdf:RDF>
  </metadata>
  <defs id="defs3059">

    <g id="even-top-spade">
      <use id="even-top-spade-support" x="0" y="0" width="1027" height="615" xlink:href="#even-top-support"/>
      <use transform="matrix(0,-1,-1,0,20,0)" id="even-top-spade-right" x="0" y="0" width="1027" height="615" xlink:href="#sl"/>
      <use transform="matrix(0,-1,1,0,-20,0)" id="even-top-spade-left" x="0" y="0" width="1027" height="615" xlink:href="#sl"/>
    </g>
    <g transform="translate(154,-27.401869)" id="even-top-support">
      <path d="m -155,31.3125 -2.0625,-1.875 c -1.47893,-1.338409 -4.04717,-1.975437 -8.90625,-2.25 l -6.46875,-0.375 0,1.1875 5.09375,0 c 6.77279,0 10.14931,1.359095 10.90625,4.375 0.68447,3.962369 -0.48931,4.708845 1.81255,4.6875 1.88479,0 1.61211,-0.136865 1.625,-1.4375 0,-5.54677 1.88434,-6.998308 9.65625,-7.4375 l 6.65625,-0.375 0,-1 -6.34375,0.375 c -4.85908,0.274563 -7.42732,0.911591 -8.90625,2.25 l -2.0625,1.875 c -0.28388,0.258075 -0.5756,0.385865 -1.00005,0 z" id="path17556-1-2-8" style="fill:#9b0000"/>
      <path d="m -172.4375,27 0,0.8125 6.78125,0.375 c 5.36007,0.302871 7.20221,0.816245 8.375,2.34375 0.90639,1.180526 1.3296,1.371683 1.0625,0.46875 -0.72301,-2.444142 -4.91205,-3.98427 -10.9375,-4 z m 30.59375,0 c -6.02545,0.01573 -10.21449,1.555858 -10.9375,4 -0.2671,0.902933 0.15612,0.711776 1.0625,-0.46875 1.17279,-1.527505 3.01493,-2.040879 8.375,-2.34375 l 6.65625,-0.375 0,-0.8125 z" id="path17554-7-8-6" style="fill:#009800"/>
    </g>
    <g id="ib8">
      <use transform="matrix(-1,0,0,-1,79,123)" id="use8720" x="0" y="0" width="1027" height="615" xlink:href="#it8"/>
    </g>
    <g transform="matrix(0.34594092,0,0,0.34594092,-164.70913,-104.56216)" id="letter-8">
      <path d="m 493.3766,392.88508 c -3.84262,-3.23335 -4.7799,-7.34379 -2.68246,-11.76383 1.23586,-2.60439 1.36669,-4.01432 0.56753,-6.11627 -3.27617,-8.61698 7.76569,-15.51914 14.32833,-8.95651 2.71884,2.71884 3.49824,7.45313 1.69593,10.3015 -0.59293,0.93706 -0.41344,2.14653 0.51531,3.47251 2.49504,3.56216 1.80949,9.35911 -1.49796,12.66655 -3.80474,3.80474 -8.69752,3.95465 -12.92668,0.39605 z m 11.73898,-1.85505 c 2.73206,-2.90814 3.01235,-7.59301 0.66832,-11.17045 -1.2615,-1.92529 -1.44144,-2.96357 -0.65064,-3.75437 1.64143,-1.64143 1.31505,-6.79037 -0.56189,-8.86436 -2.53232,-2.79819 -7.75997,-2.38795 -10.27243,0.80612 -2.41983,3.07631 -2.61016,5.2477 -0.69013,7.8735 1.20471,1.64753 1.12412,2.24003 -0.62683,4.60831 -1.53983,2.08273 -1.8535,3.54807 -1.34253,6.27177 1.21856,6.49544 9.04096,8.9505 13.47613,4.22948 z m -9.88922,-1.61792 c -2.54626,-2.54626 -2.54626,-5.45374 0,-8 2.49581,-2.49581 6.17303,-2.57127 8.34501,-0.17126 5.26223,5.8147 -2.80364,13.71263 -8.34501,8.17126 z m 7.5,-4 c 0,-2.89322 -0.39962,-3.55665 -2.30504,-3.82676 -4.25853,-0.60369 -6.85067,3.77105 -3.95198,6.66974 0.68363,0.68363 2.37113,1.11113 3.75,0.95 2.14269,-0.2504 2.50702,-0.80161 2.50702,-3.79298 z m -7.00846,-11.37256 c -1.25023,-1.90811 -1.38254,-2.9626 -0.56367,-4.49266 2.2087,-4.12699 7.63232,-3.73532 8.72802,0.6303 1.38683,5.5256 -5.07238,8.5813 -8.16435,3.86236 z m 6.3286,-2.38191 c 0.40701,-2.8663 -2.41029,-4.08396 -4.53443,-1.95982 -2.12414,2.12414 -0.90648,4.94144 1.95982,4.53443 1.45196,-0.20618 2.36843,-1.12265 2.57461,-2.57461 z" id="path6237" style="fill:#000000"/>
      <path d="m 495.7179,374.03955 c -1.25023,-1.90811 -1.38254,-2.9626 -0.56367,-4.49266 2.2087,-4.12699 7.63232,-3.73532 8.72802,0.6303 1.38683,5.5256 -5.07238,8.5813 -8.16435,3.86236 z m -0.49154,15.37256 c -2.54626,-2.54626 -2.54626,-5.45374 0,-8 2.49581,-2.49581 6.17303,-2.57127 8.34501,-0.17126 5.26223,5.8147 -2.80364,13.71263 -8.34501,8.17126 z m 9.88922,1.61792 c 2.73206,-2.90814 3.01235,-7.59301 0.66832,-11.17045 -1.2615,-1.92529 -1.44144,-2.96357 -0.65064,-3.75437 1.64143,-1.64143 1.31505,-6.79037 -0.56189,-8.86436 -2.53232,-2.79819 -7.75997,-2.38795 -10.27243,0.80612 -2.41983,3.07631 -2.61016,5.2477 -0.69013,7.8735 1.20471,1.64753 1.12412,2.24003 -0.62683,4.60831 -1.53983,2.08273 -1.8535,3.54807 -1.34253,6.27177 1.21856,6.49544 9.04096,8.9505 13.47613,4.22948 z" id="path6552" style="fill:#ffffff"/>
    </g>
    <g transform="translate(-0.975,-6)" id="it8">
      <use id="use8669" x="0" y="0" width="1027" height="615" xlink:href="#indicator-background"/>
      <use id="use8671" x="0" y="0" width="1027" height="615" xlink:href="#letter-8"/>
    </g>
    <g id="indicator-background">
      <path d="M 4.9840521,32.578091 C 1.870653,29.325097 2.1087365,23.444548 5.4655326,20.6857 c 2.2986147,-1.889165 5.5112604,-0.81715 6.9669734,2.324782 3.118592,6.731 -2.8390681,14.383666 -7.4484539,9.567609 z" id="path6341-2" style="stroke:#000000"/>
    </g>
    <g transform="matrix(-1,0,0,-1,-54.7,125.7098)" id="sl">
      <path d="m -55.25,118.65625 c -0.395568,1.06793 -1.148622,1.08315 -3,1 -2.3326,-0.10477 -3.286311,0.33957 -3.5625,1.6875 -0.631234,3.08072 0.690447,6.45372 3.96875,10.1875 l 3.125,3.5625 2.78125,-2.65625 c 3.331613,-3.19189 5.235439,-7.3857 4.78125,-10.59375 -0.275883,-1.94862 -0.893036,-2.31003 -3.59375,-2.1875 -1.955657,0.0887 -2.742953,0.11592 -3.09375,-1 l -1.40625,0 z" id="path5833" style="fill:#009800"/>
      <path d="m 1.8125,-6.78125 -2.34375,2 C -6.560052,0.32008 -7.222579,8.78997 -2.65625,8.5625 -2.003917,8.53 -1.240062,8.32894 -0.375,7.90625 c 1.906609,-0.93163 1.760773,-0.99451 -1.0625,-0.5 -3.002478,0.5259 -3.25,0.36081 -3.25,-2.125 0,-3.0795 1.326818,-5.98672 4.375,-9.5625 l 2.125,-2.5 z M 1.90625,-6.3125 1.71875,0.71875 C 1.6609561,2.8917995 -2,-0.40625 -2,-0.40625 -2,-0.40624929 0.42115553,2.2201295 1.5,1.75 1.9444621,1.8952379 1.571078,2.9991345 1.65625,3.6875 1.7923646,4.7875911 1.750814,5.0562184 0.78125,4.625 -0.18831439,4.1937816 -1.5849481,4.188967 -2.78125,4 c 1.2509513,0.295075 2.49904869,0.2593374 3.75,1 0.435704,0.1018058 0.8052698,0.3670812 0.75,1.15625 l -0.25,1.75 c 0.118392,0.3977563 0.088671,1.0649278 0.375,0.875 C 2.1300791,8.5913222 1.0928515,5.8484711 3.125,4.625 L 7.0625,2.53125 c -1.3260084,0.6004566 -2.7614041,0.7995693 -4,1.8125 C 1.8239041,5.3566807 1.941421,4.7789823 1.96875,3.5625 1.996079,2.3460172 1.8859064,2.7587412 2.0625,2.28125 1.9965235,0.9007439 5.836,-1.28254 5.84375,-1.28125 c -1.1508752,0.73806126 -2.0595898,0.62899049 -2.5,1.25 -0.9386081,1.3235035 -1.0999845,1.00681765 -1.25,-0.5625 C 1.9437344,-2.1630676 1.90625,-6.3125 1.90625,-6.3125 z" transform="matrix(-1,0,0,-1,-52.7,127.7098)" id="path17552-0" style="fill:#000000"/>
    </g>
    <g transform="translate(54,-36.439098)" id="green-middle">
      <path d="M -56.15625,36.6875 C -56.451819,38.369963 -56.780215,38.447605 -59,37.3125 -60.375,36.609383 -63.99375,36.0081 -67.03125,36 l -5.5,0 0,1 5.1875,0 c 6.772784,0 10.149306,1.359095 10.90625,4.375 0.868261,2.869294 -0.573956,4.555172 1.828125,4.5625 1.406199,0 1.578292,-0.100605 1.609375,-1.3125 0,-5.54677 1.884336,-6.998308 9.65625,-7.4375 l 6.875,-0.375 0,-0.8125 -5.5,0 c -3.0375,0.0034 -6.76875,0.648505 -8.28125,1.4375 -2.73013,1.424168 -2.75,1.413583 -2.75,-1.8125 0.101995,-2.082984 0.143142,-4.376005 -1.567603,-4.376005 -2.395924,0 -1.288859,3.592791 -1.588647,5.438505 z" id="rect6106-4" style="color:#000000;fill:#9b0000;fill-opacity:1;fill-rule:nonzero;stroke:#000000;stroke-width:0;stroke-linecap:butt;stroke-linejoin:miter;stroke-miterlimit:4;stroke-opacity:1;stroke-dasharray:none;stroke-dashoffset:0;marker:none;visibility:visible;display:inline;overflow:visible;enable-background:accumulate"/>
      <path d="m -72.53125,36 0,0.8125 6.875,0.375 c 5.360065,0.302871 7.202212,0.816245 8.375,2.34375 0.906385,1.180526 1.329601,1.371683 1.0625,0.46875 -0.718603,-2.42924 -4.899902,-3.98421 -10.8125,-4 z m 30.5625,0 c -5.912598,0.01578 -10.093897,1.57076 -10.8125,4 -0.267101,0.902933 0.156115,0.711776 1.0625,-0.46875 1.172788,-1.527505 3.014935,-2.040879 8.375,-2.34375 l 6.875,-0.375 0,-0.8125 z" id="rect6106" style="color:#000000;fill:#009800;fill-opacity:1;fill-rule:nonzero;stroke:#000000;stroke-width:0;stroke-linecap:butt;stroke-linejoin:miter;stroke-miterlimit:4;stroke-opacity:1;stroke-dasharray:none;stroke-dashoffset:0;marker:none;visibility:visible;display:inline;overflow:visible;enable-background:accumulate"/>
    </g>
    <g id="green-middle-spade">
      <use id="green-middle-spade-support" x="0" y="0" width="1027" height="615" xlink:href="#green-middle"/>
      <use transform="matrix(0,-1,-1,0,20,0)" id="green-middle-spade-right" x="0" y="0" width="1027" height="615" xlink:href="#sl"/>
      <use transform="matrix(0,-1,1,0,-20,0)" id="green-middle-spade-left" x="0" y="0" width="1027" height="615" xlink:href="#sl"/>
    </g>
    <path d="m -1.0670015,-0.78036012 0,3.21875012 -3.09375,-1.53125017 c -3.234346,-1.61350401 -10.3026155,-1.322386 -12.1250015,0.50000017 -0.571494,0.571496 0.67247,0.535844 3.03125,-0.09375 2.62809,-0.70147818 5.0958535,-0.76072718 7.3125015,-0.1250001 3.226841,0.9254451 3.728199,1.6906671 5.49999984,8.2187501 0.521402,1.921065 2.37500016,0.409853 2.37500016,-1.9375 0,-5.451574 5.801962,-8.20450115 12.7812485,-6.0625 2.333378,0.716138 3.180661,0.743161 2.5,0.0625 C 15.331283,-0.41332417 8.315706,-0.73360815 5.0267485,0.90713983 l -3.09375,1.53125017 0,-3.21875012 c 0.0077,-3.05923288 0.35725,-4.31078378 -1.50000006,-4.31078378 -1.85724994,0 -1.51001594,2.2181209 -1.49999994,4.31078378 z" transform="translate(-1,0)" id="brown-bottom" style="color:#000000;fill:#9b0000;fill-opacity:1;fill-rule:nonzero;stroke:#000000;stroke-width:0;stroke-linecap:butt;stroke-linejoin:miter;stroke-miterlimit:4;stroke-opacity:1;stroke-dasharray:none;stroke-dashoffset:0;marker:none;visibility:visible;display:inline;overflow:visible;enable-background:accumulate"/>
    <g id="cf">
      <path d="m 78.25,117.25 c 0,2.762 -2.238,5 -5,5 H 5.75 c -2.761,0 -5,-2.238 -5,-5 V 5.75 c 0,-2.762 2.239,-5 5,-5 h 67.5 c 2.762,0 5,2.238 5,5 v 111.5 z" id="path8383" style="fill:#ffffff;stroke:#000000;stroke-width:1.5"/>
      <path d="m 72.226712,114.23425 c 0,2.61259 -1.890126,4.72953 -4.222801,4.72953 H 10.996089 c -2.3318303,0 -4.2228009,-2.11694 -4.2228009,-4.72953 V 8.7657498 c 0,-2.6125922 1.8909706,-4.7295293 4.2228009,-4.7295293 h 57.007822 c 2.332675,0 4.222801,2.1169371 4.222801,4.7295293 V 114.23425 z" id="path10068" style="fill:#ffffff;stroke:#000000;stroke-width:1"/>
    </g>
  <g id="8_spade">
    <use id="use11044" x="553" y="369" width="1027" height="615" xlink:href="#cf"/>
    <use transform="translate(593,415)" id="use9653" x="0" y="0" width="1027" height="615" xlink:href="#brown-bottom"/>
    <use transform="translate(593,407)" id="use9655" x="0" y="0" width="1027" height="615" xlink:href="#green-middle-spade"/>
    <use transform="translate(593,399)" id="use9657" x="0" y="0" width="1027" height="615" xlink:href="#green-middle-spade"/>
    <use transform="translate(593,391)" id="use9659" x="0" y="0" width="1027" height="615" xlink:href="#green-middle-spade"/>
    <use transform="translate(593,383)" id="use9661" x="0" y="0" width="1027" height="615" xlink:href="#even-top-spade"/>
    <use transform="matrix(-1,0,0,-1,592,446)" id="use9663" x="0" y="0" width="1027" height="615" xlink:href="#brown-bottom"/>
    <use transform="matrix(-1,0,0,-1,592,454)" id="use9665" x="0" y="0" width="1027" height="615" xlink:href="#green-middle-spade"/>
    <use transform="matrix(-1,0,0,-1,592,462)" id="use9667" x="0" y="0" width="1027" height="615" xlink:href="#green-middle-spade"/>
    <use transform="matrix(-1,0,0,-1,592,470)" id="use9669" x="0" y="0" width="1027" height="615" xlink:href="#green-middle-spade"/>
    <use transform="matrix(-1,0,0,-1,592,478)" id="use9671" x="0" y="0" width="1027" height="615" xlink:href="#even-top-spade"/>
    <use id="use11046" style="fill:#00a000" x="553" y="369" width="1027" height="615" xlink:href="#it8"/>
    <use id="use11048" style="fill:#00a000" x="553" y="369" width="1027" height="615" xlink:href="#ib8"/>
  </g>
  </defs>
  <use xlink:href="#8_spade" transform="scale(180,280)scale(0.0126582278481, 0.00813008130081)translate(-553,-369)"/>
</svg>