<?xml version="1.0" encoding="UTF-8" standalone="no"?>
<!-- Created with Inkscape (http://www.inkscape.org/) -->
<svg xmlns:dc="http://purl.org/dc/elements/1.1/" xmlns:cc="http://creativecommons.org/ns#" xmlns:rdf="http://www.w3.org/1999/02/22-rdf-syntax-ns#" xmlns:svg="http://www.w3.org/2000/svg" xmlns="http://www.w3.org/2000/svg" xmlns:xlink="http://www.w3.org/1999/xlink" version="1.1" width="158" height="246" viewBox="0 0 158 246" id="svg10047">
  <metadata id="metadata16869">
    <rdf:RDF>
      <cc:Work rdf:about="">
        <dc:format>image/svg+xml</dc:format>
        <dc:type rdf:resource="http://purl.org/dc/dcmitype/StillImage"/>
        <dc:title/>
      </cc:Work>
    </rdf:RDF>
  </metadata>
  <defs id="defs3059">
    <path d="m -1.0670015,-0.78036012 0,3.21875012 -3.09375,-1.53125017 c -3.234346,-1.61350401 -10.3026155,-1.322386 -12.1250015,0.50000017 -0.571494,0.571496 0.67247,0.535844 3.03125,-0.09375 2.62809,-0.70147818 5.0958535,-0.76072718 7.3125015,-0.1250001 3.226841,0.9254451 3.728199,1.6906671 5.49999984,8.2187501 0.521402,1.921065 2.37500016,0.409853 2.37500016,-1.9375 0,-5.451574 5.801962,-8.20450115 12.7812485,-6.0625 2.333378,0.716138 3.180661,0.743161 2.5,0.0625 C 15.331283,-0.41332417 8.315706,-0.73360815 5.0267485,0.90713983 l -3.09375,1.53125017 0,-3.21875012 c 0.0077,-3.05923288 0.35725,-4.31078378 -1.50000006,-4.31078378 -1.85724994,0 -1.51001594,2.2181209 -1.49999994,4.31078378 z" transform="translate(-1,0)" id="brown-bottom" style="color:#000000;fill:#9b0000;fill-opacity:1;fill-rule:nonzero;stroke:#000000;stroke-width:0;stroke-linecap:butt;stroke-linejoin:miter;stroke-miterlimit:4;stroke-opacity:1;stroke-dasharray:none;stroke-dashoffset:0;marker:none;visibility:visible;display:inline;overflow:visible;enable-background:accumulate"/>
    <g transform="translate(-246,-14.260579)" id="hl">
      <path d="M 240.714,19.217272 C 235.99487,14.426097 234.95065,11.449352 237.2,9.2 c 1.67166,-1.671664 5.30754,-1.498303 6.82094,0.325228 1.13448,1.366971 1.4407,1.366971 2.95118,0 C 248.9924,7.696902 252.14666,7.546657 253.8,9.2 c 2.29289,2.292895 1.19594,5.379184 -3.586,10.089213 l -4.78599,4.714029 -4.71401,-4.78597 z" id="path4346" style="fill:#fe0000"/>
      <path d="M 246,16.908208 C 246,10.012178 247.01646,8 250.5,8 c 1.155,0 2.64,0.54 3.3,1.2 2.25758,2.257582 1.20739,5.37633 -3.3,9.8 l -4.5,4.416416 0,-6.508208 z" id="path4306" style="fill:#bc0000"/>
    </g>
    <g id="cf">
      <path d="m 78.25,117.25 c 0,2.762 -2.238,5 -5,5 H 5.75 c -2.761,0 -5,-2.238 -5,-5 V 5.75 c 0,-2.762 2.239,-5 5,-5 h 67.5 c 2.762,0 5,2.238 5,5 v 111.5 z" id="path8383" style="fill:#ffffff;stroke:#000000;stroke-width:1"/>
      <path d="m 72.226712,114.23425 c 0,2.61259 -1.890126,4.72953 -4.222801,4.72953 H 10.996089 c -2.3318303,0 -4.2228009,-2.11694 -4.2228009,-4.72953 V 8.7657498 c 0,-2.6125922 1.8909706,-4.7295293 4.2228009,-4.7295293 h 57.007822 c 2.332675,0 4.222801,2.1169371 4.222801,4.7295293 V 114.23425 z" id="path10068" style="fill:#ffffff;stroke:#000000;stroke-width:0.75"/>
    </g>
    <g transform="matrix(0.34594092,0,0,0.34594092,-164.70913,-104.56216)" id="letter-8">
      <path d="m 493.3766,392.88508 c -3.84262,-3.23335 -4.7799,-7.34379 -2.68246,-11.76383 1.23586,-2.60439 1.36669,-4.01432 0.56753,-6.11627 -3.27617,-8.61698 7.76569,-15.51914 14.32833,-8.95651 2.71884,2.71884 3.49824,7.45313 1.69593,10.3015 -0.59293,0.93706 -0.41344,2.14653 0.51531,3.47251 2.49504,3.56216 1.80949,9.35911 -1.49796,12.66655 -3.80474,3.80474 -8.69752,3.95465 -12.92668,0.39605 z m 11.73898,-1.85505 c 2.73206,-2.90814 3.01235,-7.59301 0.66832,-11.17045 -1.2615,-1.92529 -1.44144,-2.96357 -0.65064,-3.75437 1.64143,-1.64143 1.31505,-6.79037 -0.56189,-8.86436 -2.53232,-2.79819 -7.75997,-2.38795 -10.27243,0.80612 -2.41983,3.07631 -2.61016,5.2477 -0.69013,7.8735 1.20471,1.64753 1.12412,2.24003 -0.62683,4.60831 -1.53983,2.08273 -1.8535,3.54807 -1.34253,6.27177 1.21856,6.49544 9.04096,8.9505 13.47613,4.22948 z m -9.88922,-1.61792 c -2.54626,-2.54626 -2.54626,-5.45374 0,-8 2.49581,-2.49581 6.17303,-2.57127 8.34501,-0.17126 5.26223,5.8147 -2.80364,13.71263 -8.34501,8.17126 z m 7.5,-4 c 0,-2.89322 -0.39962,-3.55665 -2.30504,-3.82676 -4.25853,-0.60369 -6.85067,3.77105 -3.95198,6.66974 0.68363,0.68363 2.37113,1.11113 3.75,0.95 2.14269,-0.2504 2.50702,-0.80161 2.50702,-3.79298 z m -7.00846,-11.37256 c -1.25023,-1.90811 -1.38254,-2.9626 -0.56367,-4.49266 2.2087,-4.12699 7.63232,-3.73532 8.72802,0.6303 1.38683,5.5256 -5.07238,8.5813 -8.16435,3.86236 z m 6.3286,-2.38191 c 0.40701,-2.8663 -2.41029,-4.08396 -4.53443,-1.95982 -2.12414,2.12414 -0.90648,4.94144 1.95982,4.53443 1.45196,-0.20618 2.36843,-1.12265 2.57461,-2.57461 z" id="path6237" style="fill:#000000"/>
      <path d="m 495.7179,374.03955 c -1.25023,-1.90811 -1.38254,-2.9626 -0.56367,-4.49266 2.2087,-4.12699 7.63232,-3.73532 8.72802,0.6303 1.38683,5.5256 -5.07238,8.5813 -8.16435,3.86236 z m -0.49154,15.37256 c -2.54626,-2.54626 -2.54626,-5.45374 0,-8 2.49581,-2.49581 6.17303,-2.57127 8.34501,-0.17126 5.26223,5.8147 -2.80364,13.71263 -8.34501,8.17126 z m 9.88922,1.61792 c 2.73206,-2.90814 3.01235,-7.59301 0.66832,-11.17045 -1.2615,-1.92529 -1.44144,-2.96357 -0.65064,-3.75437 1.64143,-1.64143 1.31505,-6.79037 -0.56189,-8.86436 -2.53232,-2.79819 -7.75997,-2.38795 -10.27243,0.80612 -2.41983,3.07631 -2.61016,5.2477 -0.69013,7.8735 1.20471,1.64753 1.12412,2.24003 -0.62683,4.60831 -1.53983,2.08273 -1.8535,3.54807 -1.34253,6.27177 1.21856,6.49544 9.04096,8.9505 13.47613,4.22948 z" id="path6552" style="fill:#ffffff"/>
    </g>
    <g id="indicator-background">
      <path d="M 4.9840521,32.578091 C 1.870653,29.325097 2.1087365,23.444548 5.4655326,20.6857 c 2.2986147,-1.889165 5.5112604,-0.81715 6.9669734,2.324782 3.118592,6.731 -2.8390681,14.383666 -7.4484539,9.567609 z" id="path6341-2" style="stroke:#000000"/>
    </g>
    <g transform="translate(-0.975,-6)" id="it8">
      <use id="use8669" x="0" y="0" width="1027" height="615" xlink:href="#indicator-background"/>
      <use id="use8671" x="0" y="0" width="1027" height="615" xlink:href="#letter-8"/>
    </g>
    <g id="ib8">
      <use transform="matrix(-1,0,0,-1,79,123)" id="use8720" x="0" y="0" width="1027" height="615" xlink:href="#it8"/>
    </g>
  </defs>
  <g id="8_heart" transform="scale(2)translate(-553,-246)">
    <use id="use11017" x="553" y="246" width="1027" height="615" xlink:href="#cf"/>
    <use transform="translate(571.5,269)" id="use9617" x="0" y="0" width="1027" height="615" xlink:href="#hl"/>
    <use transform="translate(571.5,282)" id="use9619" x="0" y="0" width="1027" height="615" xlink:href="#hl"/>
    <use transform="translate(571.5,295)" id="use9621" x="0" y="0" width="1027" height="615" xlink:href="#hl"/>
    <use transform="translate(592.5,289)" id="use9623" x="0" y="0" width="1027" height="615" xlink:href="#hl"/>
    <use transform="translate(592.5,276)" id="use9625" x="0" y="0" width="1027" height="615" xlink:href="#hl"/>
    <use transform="translate(613.5,269)" id="use9627" x="0" y="0" width="1027" height="615" xlink:href="#hl"/>
    <use transform="translate(613.5,282)" id="use9629" x="0" y="0" width="1027" height="615" xlink:href="#hl"/>
    <use transform="translate(613.5,295)" id="use9631" x="0" y="0" width="1027" height="615" xlink:href="#hl"/>
    <use transform="matrix(-1,0,0,-1,612.5,346)" id="use9633" x="0" y="0" width="1027" height="615" xlink:href="#hl"/>
    <use transform="matrix(-1,0,0,-1,612.5,333)" id="use9635" x="0" y="0" width="1027" height="615" xlink:href="#hl"/>
    <use transform="matrix(-1,0,0,-1,612.5,320)" id="use9637" x="0" y="0" width="1027" height="615" xlink:href="#hl"/>
    <use transform="matrix(-1,0,0,-1,591.5,326)" id="use9639" x="0" y="0" width="1027" height="615" xlink:href="#hl"/>
    <use transform="matrix(-1,0,0,-1,591.5,339)" id="use9641" x="0" y="0" width="1027" height="615" xlink:href="#hl"/>
    <use transform="matrix(-1,0,0,-1,570.5,346)" id="use9643" x="0" y="0" width="1027" height="615" xlink:href="#hl"/>
    <use transform="matrix(-1,0,0,-1,570.5,333)" id="use9645" x="0" y="0" width="1027" height="615" xlink:href="#hl"/>
    <use transform="matrix(-1,0,0,-1,570.5,320)" id="use9647" x="0" y="0" width="1027" height="615" xlink:href="#hl"/>
    <use id="use11019" style="fill:#df0000" x="553" y="246" width="1027" height="615" xlink:href="#it8"/>
    <use id="use11021" style="fill:#df0000" x="553" y="246" width="1027" height="615" xlink:href="#ib8"/>
  </g>
</svg>