<?xml version="1.0" encoding="UTF-8" standalone="no"?>
<!-- Created with Inkscape (http://www.inkscape.org/) -->

<svg
   version="1.1"
   width="158"
   height="246"
   viewBox="0 0 158 246"
   id="svg10047"
   sodipodi:docname="Playing_card-german-hart-06.svg"
   inkscape:version="1.2.2 (b0a8486541, 2022-12-01)"
   xmlns:inkscape="http://www.inkscape.org/namespaces/inkscape"
   xmlns:sodipodi="http://sodipodi.sourceforge.net/DTD/sodipodi-0.dtd"
   xmlns:xlink="http://www.w3.org/1999/xlink"
   xmlns="http://www.w3.org/2000/svg"
   xmlns:svg="http://www.w3.org/2000/svg"
   xmlns:rdf="http://www.w3.org/1999/02/22-rdf-syntax-ns#"
   xmlns:cc="http://creativecommons.org/ns#"
   xmlns:dc="http://purl.org/dc/elements/1.1/">
  <sodipodi:namedview
     id="namedview44"
     pagecolor="#ffffff"
     bordercolor="#000000"
     borderopacity="0.25"
     inkscape:showpageshadow="2"
     inkscape:pageopacity="0.0"
     inkscape:pagecheckerboard="0"
     inkscape:deskcolor="#d1d1d1"
     showgrid="false"
     inkscape:zoom="3.3943089"
     inkscape:cx="35.058683"
     inkscape:cy="123.29461"
     inkscape:window-width="1920"
     inkscape:window-height="1016"
     inkscape:window-x="0"
     inkscape:window-y="0"
     inkscape:window-maximized="1"
     inkscape:current-layer="svg10047" />
  <metadata
     id="metadata16869">
    <rdf:RDF>
      <cc:Work
         rdf:about="">
        <dc:format>image/svg+xml</dc:format>
        <dc:type
           rdf:resource="http://purl.org/dc/dcmitype/StillImage" />
      </cc:Work>
    </rdf:RDF>
  </metadata>
  <defs
     id="defs3059">
    <path
       d="m -1.0670015,-0.78036012 0,3.21875012 -3.09375,-1.53125017 c -3.234346,-1.61350401 -10.3026155,-1.322386 -12.1250015,0.50000017 -0.571494,0.571496 0.67247,0.535844 3.03125,-0.09375 2.62809,-0.70147818 5.0958535,-0.76072718 7.3125015,-0.1250001 3.226841,0.9254451 3.728199,1.6906671 5.49999984,8.2187501 0.521402,1.921065 2.37500016,0.409853 2.37500016,-1.9375 0,-5.451574 5.801962,-8.20450115 12.7812485,-6.0625 2.333378,0.716138 3.180661,0.743161 2.5,0.0625 C 15.331283,-0.41332417 8.315706,-0.73360815 5.0267485,0.90713983 l -3.09375,1.53125017 0,-3.21875012 c 0.0077,-3.05923288 0.35725,-4.31078378 -1.50000006,-4.31078378 -1.85724994,0 -1.51001594,2.2181209 -1.49999994,4.31078378 z"
       transform="translate(-1,0)"
       id="brown-bottom"
       style="color:#000000;fill:#9b0000;fill-opacity:1;fill-rule:nonzero;stroke:#000000;stroke-width:0;stroke-linecap:butt;stroke-linejoin:miter;stroke-miterlimit:4;stroke-opacity:1;stroke-dasharray:none;stroke-dashoffset:0;marker:none;visibility:visible;display:inline;overflow:visible;enable-background:accumulate" />
    <g
       transform="translate(-246,-14.260579)"
       id="hl">
      <path
         d="M 240.714,19.217272 C 235.99487,14.426097 234.95065,11.449352 237.2,9.2 c 1.67166,-1.671664 5.30754,-1.498303 6.82094,0.325228 1.13448,1.366971 1.4407,1.366971 2.95118,0 C 248.9924,7.696902 252.14666,7.546657 253.8,9.2 c 2.29289,2.292895 1.19594,5.379184 -3.586,10.089213 l -4.78599,4.714029 -4.71401,-4.78597 z"
         id="path4346"
         style="fill:#fe0000" />
      <path
         d="M 246,16.908208 C 246,10.012178 247.01646,8 250.5,8 c 1.155,0 2.64,0.54 3.3,1.2 2.25758,2.257582 1.20739,5.37633 -3.3,9.8 l -4.5,4.416416 0,-6.508208 z"
         id="path4306"
         style="fill:#bc0000" />
    </g>
    <g
       id="cf">
      <path
         d="m 78.25,117.25 c 0,2.762 -2.238,5 -5,5 H 5.75 c -2.761,0 -5,-2.238 -5,-5 V 5.75 c 0,-2.762 2.239,-5 5,-5 h 67.5 c 2.762,0 5,2.238 5,5 v 111.5 z"
         id="path8383"
         style="fill:#ffffff;stroke:#000000;stroke-width:1" />
      <path
         d="m 72.226712,114.23425 c 0,2.61259 -1.890126,4.72953 -4.222801,4.72953 H 10.996089 c -2.3318303,0 -4.2228009,-2.11694 -4.2228009,-4.72953 V 8.7657498 c 0,-2.6125922 1.8909706,-4.7295293 4.2228009,-4.7295293 h 57.007822 c 2.332675,0 4.222801,2.1169371 4.222801,4.7295293 V 114.23425 z"
         id="path10068"
         style="fill:#ffffff;stroke:#000000;stroke-width:0.75" />
    </g>
    <g
       transform="matrix(0.34594092,0,0,0.34594092,-190.51862,-98.41045)"
       id="letter-9">
      <path
         d="m 577.77581,355.77274 c 0,-3.56828 -2.68479,-5.61214 -5.25,-3.99669 -3.92319,2.47064 -1.97467,7.72752 2.6644,7.18826 2.11525,-0.24589 2.5856,-0.82647 2.5856,-3.19157 z m -7.5,3.39101 c -2.73375,-2.73375 -2.5087,-5.45469 0.65713,-7.94494 2.88446,-2.26892 5.94934,-1.98979 8.09287,0.73704 4.4806,5.69989 -3.60084,12.35706 -8.75,7.2079 z m 7.4552,16.37882 c 3.05147,-1.17096 4.5448,-5.94019 4.5448,-14.51471 0,-7.07898 -0.30528,-8.56016 -2.17431,-10.54966 -4.48503,-4.77409 -13.82569,-1.27072 -13.82569,5.18555 0,5.51474 9.10426,9.99574 12.8,6.3 0.93333,-0.93333 1.2,-0.29664 1.2,2.86514 0,4.2808 -2.98514,9.33486 -5.51356,9.33486 -0.75262,0 -1.64652,0.45 -1.98644,1 -0.68535,1.10892 2.43162,1.34721 4.9552,0.37882 z m -5.78853,1.95451 c -1.57756,-1.57756 -0.54029,-4.32695 1.85971,-4.92931 2.72105,-0.68294 4.47362,-3.11167 4.47362,-6.19961 0,-1.51792 -0.53245,-1.82528 -2.50784,-1.44766 -3.8984,0.74522 -8.17054,-1.55921 -9.98698,-5.38708 -4.62522,-9.74693 7.95608,-18.06226 15.66494,-10.35339 3.01268,3.01268 3.01587,3.02827 2.67308,13.08363 -0.3385,9.92961 -0.38789,10.10727 -3.60898,12.98373 -3.05457,2.72776 -7.04236,3.77488 -8.56755,2.24969 z"
         id="path6249"
         style="fill:#000000" />
      <path
         d="m 570.27581,359.16375 c -2.73375,-2.73375 -2.5087,-5.45469 0.65713,-7.94494 2.88446,-2.26892 5.94934,-1.98979 8.09287,0.73704 4.4806,5.69989 -3.60084,12.35706 -8.75,7.2079 z m 7.4552,16.37882 c 3.05147,-1.17096 4.5448,-5.94019 4.5448,-14.51471 0,-7.07898 -0.30528,-8.56016 -2.17431,-10.54966 -4.48503,-4.77409 -13.82569,-1.27072 -13.82569,5.18555 0,5.51474 9.10426,9.99574 12.8,6.3 0.93333,-0.93333 1.2,-0.29664 1.2,2.86514 0,4.2808 -2.98514,9.33486 -5.51356,9.33486 -0.75262,0 -1.64652,0.45 -1.98644,1 -0.68535,1.10892 2.43162,1.34721 4.9552,0.37882 z"
         id="path6425"
         style="fill:#ffffff" />
    </g>
    <g
       id="indicator-background">
      <path
         d="M 4.9840521,32.578091 C 1.870653,29.325097 2.1087365,23.444548 5.4655326,20.6857 c 2.2986147,-1.889165 5.5112604,-0.81715 6.9669734,2.324782 3.118592,6.731 -2.8390681,14.383666 -7.4484539,9.567609 z"
         id="path6341-2"
         style="stroke:#000000" />
    </g>
    <g
       transform="translate(-0.975,-6)"
       id="it9">
      <use
         id="use8674"
         x="0"
         y="0"
         width="1027"
         height="615"
         xlink:href="#indicator-background" />
      <use
         id="use8676"
         x="0"
         y="0"
         width="1027"
         height="615"
         xlink:href="#letter-9" />
    </g>
    <g
       id="ib9">
      <use
         transform="matrix(-1,0,0,-1,79,123)"
         id="use8723"
         x="0"
         y="0"
         width="1027"
         height="615"
         xlink:href="#it9" />
    </g>
  </defs>
  <use
     id="use11129"
     x="632"
     y="246"
     width="1027"
     height="615"
     xlink:href="#cf"
     transform="matrix(2,0,0,2,-1264,-492)" />
  <use
     transform="matrix(2,0,0,2,37,46)"
     id="use9737"
     x="0"
     y="0"
     width="1027"
     height="615"
     xlink:href="#hl" />
  <use
     transform="matrix(2,0,0,2,37,72)"
     id="use9739"
     x="0"
     y="0"
     width="1027"
     height="615"
     xlink:href="#hl" />
  <use
     transform="matrix(2,0,0,2,37,98)"
     id="use9741"
     x="0"
     y="0"
     width="1027"
     height="615"
     xlink:href="#hl" />
  <use
     transform="matrix(2,0,0,2,121,46)"
     id="use9749"
     x="0"
     y="0"
     width="1027"
     height="615"
     xlink:href="#hl" />
  <use
     transform="matrix(2,0,0,2,121,72)"
     id="use9751"
     x="0"
     y="0"
     width="1027"
     height="615"
     xlink:href="#hl" />
  <use
     transform="matrix(2,0,0,2,121,98)"
     id="use9753"
     x="0"
     y="0"
     width="1027"
     height="615"
     xlink:href="#hl" />
  <use
     transform="matrix(-2,0,0,-2,119,200)"
     id="use9755"
     x="0"
     y="0"
     width="1027"
     height="615"
     xlink:href="#hl" />
  <use
     transform="matrix(-2,0,0,-2,119,174)"
     id="use9757"
     x="0"
     y="0"
     width="1027"
     height="615"
     xlink:href="#hl" />
  <use
     transform="matrix(-2,0,0,-2,119,148)"
     id="use9759"
     x="0"
     y="0"
     width="1027"
     height="615"
     xlink:href="#hl" />
  <use
     transform="matrix(-2,0,0,-2,35,200)"
     id="use9767"
     x="0"
     y="0"
     width="1027"
     height="615"
     xlink:href="#hl" />
  <use
     transform="matrix(-2,0,0,-2,35,174)"
     id="use9769"
     x="0"
     y="0"
     width="1027"
     height="615"
     xlink:href="#hl" />
  <use
     transform="matrix(-2,0,0,-2,35,148)"
     id="use9771"
     x="0"
     y="0"
     width="1027"
     height="615"
     xlink:href="#hl" />
  <use
     id="use11131"
     style="fill:#df0000"
     x="632"
     y="246"
     width="1027"
     height="615"
     xlink:href="#it9"
     transform="matrix(-2,0,0,-2,1292.2797,575.67874)" />
  <use
     id="use11133"
     style="fill:#df0000"
     x="632"
     y="246"
     width="1027"
     height="615"
     xlink:href="#ib9"
     transform="matrix(-2,0,0,-2,1551.7203,900.32126)" />
</svg>
