<?xml version="1.0" encoding="UTF-8" standalone="no"?>
<!-- Created with Inkscape (http://www.inkscape.org/) -->
<svg xmlns:dc="http://purl.org/dc/elements/1.1/" xmlns:cc="http://creativecommons.org/ns#" xmlns:rdf="http://www.w3.org/1999/02/22-rdf-syntax-ns#" xmlns:svg="http://www.w3.org/2000/svg" xmlns="http://www.w3.org/2000/svg" xmlns:xlink="http://www.w3.org/1999/xlink" version="1.1" width="158" height="246" viewBox="0 0 158 246" id="svg10047">
  <metadata id="metadata16869">
    <rdf:RDF>
      <cc:Work rdf:about="">
        <dc:format>image/svg+xml</dc:format>
        <dc:type rdf:resource="http://purl.org/dc/dcmitype/StillImage"/>
        <dc:title/>
      </cc:Work>
    </rdf:RDF>
  </metadata>
  <defs id="defs3059">
    <path d="m -1.0670015,-0.78036012 0,3.21875012 -3.09375,-1.53125017 c -3.234346,-1.61350401 -10.3026155,-1.322386 -12.1250015,0.50000017 -0.571494,0.571496 0.67247,0.535844 3.03125,-0.09375 2.62809,-0.70147818 5.0958535,-0.76072718 7.3125015,-0.1250001 3.226841,0.9254451 3.728199,1.6906671 5.49999984,8.2187501 0.521402,1.921065 2.37500016,0.409853 2.37500016,-1.9375 0,-5.451574 5.801962,-8.20450115 12.7812485,-6.0625 2.333378,0.716138 3.180661,0.743161 2.5,0.0625 C 15.331283,-0.41332417 8.315706,-0.73360815 5.0267485,0.90713983 l -3.09375,1.53125017 0,-3.21875012 c 0.0077,-3.05923288 0.35725,-4.31078378 -1.50000006,-4.31078378 -1.85724994,0 -1.51001594,2.2181209 -1.49999994,4.31078378 z" transform="translate(-1,0)" id="brown-bottom" style="color:#000000;fill:#9b0000;fill-opacity:1;fill-rule:nonzero;stroke:#000000;stroke-width:0;stroke-linecap:butt;stroke-linejoin:miter;stroke-miterlimit:4;stroke-opacity:1;stroke-dasharray:none;stroke-dashoffset:0;marker:none;visibility:visible;display:inline;overflow:visible;enable-background:accumulate"/>
    <g transform="translate(-246,-14.260579)" id="hl">
      <path d="M 240.714,19.217272 C 235.99487,14.426097 234.95065,11.449352 237.2,9.2 c 1.67166,-1.671664 5.30754,-1.498303 6.82094,0.325228 1.13448,1.366971 1.4407,1.366971 2.95118,0 C 248.9924,7.696902 252.14666,7.546657 253.8,9.2 c 2.29289,2.292895 1.19594,5.379184 -3.586,10.089213 l -4.78599,4.714029 -4.71401,-4.78597 z" id="path4346" style="fill:#fe0000"/>
      <path d="M 246,16.908208 C 246,10.012178 247.01646,8 250.5,8 c 1.155,0 2.64,0.54 3.3,1.2 2.25758,2.257582 1.20739,5.37633 -3.3,9.8 l -4.5,4.416416 0,-6.508208 z" id="path4306" style="fill:#bc0000"/>
    </g>
    <g id="cf">
      <path d="m 78.25,117.25 c 0,2.762 -2.238,5 -5,5 H 5.75 c -2.761,0 -5,-2.238 -5,-5 V 5.75 c 0,-2.762 2.239,-5 5,-5 h 67.5 c 2.762,0 5,2.238 5,5 v 111.5 z" id="path8383" style="fill:#ffffff;stroke:#000000;stroke-width:1"/>
      <path d="m 72.226712,114.23425 c 0,2.61259 -1.890126,4.72953 -4.222801,4.72953 H 10.996089 c -2.3318303,0 -4.2228009,-2.11694 -4.2228009,-4.72953 V 8.7657498 c 0,-2.6125922 1.8909706,-4.7295293 4.2228009,-4.7295293 h 57.007822 c 2.332675,0 4.222801,2.1169371 4.222801,4.7295293 V 114.23425 z" id="path10068" style="fill:#ffffff;stroke:#000000;stroke-width:0.75"/>
    </g>
    <g transform="matrix(0.34594092,0,0,0.34594092,-163.18455,-84.57127)" id="letter-7">
      <path d="m 499.31654,338.37114 c -0.38987,-0.38987 -0.70885,-5.75375 -0.70885,-11.91974 0,-13.00084 -0.3494,-13.83767 -8.38565,-14.44081 -4.29569,-0.3224 -4.95367,0.76881 -5.11435,-2.51497 -0.11208,-2.29066 0.76686,-2.04431 5.20183,-2.30059 6.28356,-0.3631 10.63469,1.61689 12.81387,5.83095 1.18911,2.29948 1.48381,5.61026 1.26693,14.23307 -0.26263,10.44133 -0.42709,11.25725 -2.32378,11.52875 -1.12263,0.1607 -2.36013,-0.0268 -2.75,-0.41666 z" id="path6146" style="fill:#000000"/>
      <path d="m 502.60769,325.9187 c 0,-10.90958 0.20543,-12.1546 -2.24861,-14.47706 -2.45404,-2.32246 -4.2311,-2.66172 -8.87512,-3.03645 -6.60876,-0.53327 -5.65546,2.04177 -3.61004,2.15279 5.37318,0.29163 8.67528,0.0376 10.75921,2.46308 1.59139,1.85223 1.97456,3.35513 1.97456,12.97456 0,6.66667 0.39394,11 1,11 0.60648,0 1,-4.35897 1,-11.07692 z" id="path6148" style="fill:#ffffff"/>
    </g>
    <g id="indicator-background">
      <path d="M 4.9840521,32.578091 C 1.870653,29.325097 2.1087365,23.444548 5.4655326,20.6857 c 2.2986147,-1.889165 5.5112604,-0.81715 6.9669734,2.324782 3.118592,6.731 -2.8390681,14.383666 -7.4484539,9.567609 z" id="path6341-2" style="stroke:#000000"/>
    </g>
    <g transform="translate(-0.975,-6)" id="it7">
      <use id="use8664" x="0" y="0" width="1027" height="615" xlink:href="#indicator-background"/>
      <use id="use8666" x="0" y="0" width="1027" height="615" xlink:href="#letter-7"/>
    </g>
    <g id="ib7">
      <use transform="matrix(-1,0,0,-1,79,123)" id="use8717" x="0" y="0" width="1027" height="615" xlink:href="#it7"/>
    </g>
  </defs>
  <g id="7_heart" transform="scale(2)translate(-474,-246)">
    <use id="use10913" x="474" y="246" width="1027" height="615" xlink:href="#cf"/>
    <use transform="translate(492.5,269)" id="use9505" x="0" y="0" width="1027" height="615" xlink:href="#hl"/>
    <use transform="translate(492.5,282)" id="use9507" x="0" y="0" width="1027" height="615" xlink:href="#hl"/>
    <use transform="translate(492.5,295)" id="use9509" x="0" y="0" width="1027" height="615" xlink:href="#hl"/>
    <use transform="translate(513.5,260)" id="use9511" x="0" y="0" width="1027" height="615" xlink:href="#hl"/>
    <use transform="translate(534.5,269)" id="use9513" x="0" y="0" width="1027" height="615" xlink:href="#hl"/>
    <use transform="translate(534.5,282)" id="use9515" x="0" y="0" width="1027" height="615" xlink:href="#hl"/>
    <use transform="translate(534.5,295)" id="use9517" x="0" y="0" width="1027" height="615" xlink:href="#hl"/>
    <use transform="matrix(-1,0,0,-1,533.5,346)" id="use9519" x="0" y="0" width="1027" height="615" xlink:href="#hl"/>
    <use transform="matrix(-1,0,0,-1,533.5,333)" id="use9521" x="0" y="0" width="1027" height="615" xlink:href="#hl"/>
    <use transform="matrix(-1,0,0,-1,533.5,320)" id="use9523" x="0" y="0" width="1027" height="615" xlink:href="#hl"/>
    <use transform="matrix(-1,0,0,-1,512.5,355)" id="use9525" x="0" y="0" width="1027" height="615" xlink:href="#hl"/>
    <use transform="matrix(-1,0,0,-1,491.5,346)" id="use9527" x="0" y="0" width="1027" height="615" xlink:href="#hl"/>
    <use transform="matrix(-1,0,0,-1,491.5,333)" id="use9529" x="0" y="0" width="1027" height="615" xlink:href="#hl"/>
    <use transform="matrix(-1,0,0,-1,491.5,320)" id="use9531" x="0" y="0" width="1027" height="615" xlink:href="#hl"/>
    <use id="use10915" style="fill:#df0000" x="474" y="246" width="1027" height="615" xlink:href="#it7"/>
    <use id="use10917" style="fill:#df0000" x="474" y="246" width="1027" height="615" xlink:href="#ib7"/>
  </g>
</svg>