<?xml version="1.0" encoding="UTF-8" standalone="no"?>
<!-- Created with Inkscape (http://www.inkscape.org/) -->
<svg xmlns:dc="http://purl.org/dc/elements/1.1/" xmlns:cc="http://creativecommons.org/ns#" xmlns:rdf="http://www.w3.org/1999/02/22-rdf-syntax-ns#" xmlns:svg="http://www.w3.org/2000/svg" xmlns="http://www.w3.org/2000/svg" xmlns:xlink="http://www.w3.org/1999/xlink" version="1.1" width="180" height="280" viewBox="0 0 180 280" id="svg10047">
  <metadata id="metadata16869">
    <rdf:RDF>
      <cc:Work rdf:about="">
        <dc:format>image/svg+xml</dc:format>
        <dc:type rdf:resource="http://purl.org/dc/dcmitype/StillImage"/>
        <dc:title/>
      </cc:Work>
    </rdf:RDF>
  </metadata>
  <defs id="defs3059">

    <g transform="translate(-346,-13.597296)" id="dl">
      <path d="m 342,21.316021 c -4.23127,-4.185585 -5.01467,-6.38697 -3.39057,-9.527637 0.78343,-1.514992 2.65972,-3.3933288 4.16954,-4.1740827 2.3728,-1.2270258 3.11474,-1.2258833 5.4705,0.00842 3.69088,1.9338476 5.91235,6.3069767 4.52518,8.9081627 -1.23516,2.316167 -6.59227,7.515981 -7.58637,7.363626 C 344.80973,23.836496 343.375,22.676174 342,21.316021 z" id="path4598" style="fill:#dfc800"/>
      <path d="m 343.63837,22.5 c -0.31658,-0.825 -0.13972,-1.5 0.39301,-1.5 0.53274,0 1.00415,0.5625 1.04757,1.25 0.0632,1 0.17982,1 0.58333,0 0.27741,-0.6875 0.90276,-1.25 1.38967,-1.25 0.4869,0 0.62626,0.675 0.30968,1.5 -0.31659,0.825 -1.15432,1.5 -1.86163,1.5 -0.70731,0 -1.54504,-0.675 -1.86163,-1.5 z" id="path4486" style="fill:#fe0000"/>
      <path d="m 347.09068,8.0772074 c -0.77512,-0.4906919 -2.01262,-0.6606562 -2.75,-0.3776984 -2.11462,0.8114588 -1.57691,1.3018064 1.40932,1.2851782 2.00139,-0.011144 2.36635,-0.258181 1.34068,-0.9074798 z m 5.17563,7.2223556 c 1.44754,-0.826914 -0.22162,-2.030627 -3.5691,-2.573848 -3.9979,-0.64877 -10.22034,0.465124 -10.14051,1.81528 0.11671,1.974254 10.56911,2.552596 13.70961,0.758568 z m -13.35528,2.313746 c -1.60643,-2.641564 -1.64129,-3.234256 -0.3384,-5.753763 0.79888,-1.544864 2.67894,-3.4514338 4.1779,-4.2368208 2.35576,-1.2343072 3.0977,-1.2354497 5.4705,-0.00842 1.50982,0.7807539 3.40002,2.6859908 4.20045,4.2338608 1.30115,2.516147 1.27228,3.116943 -0.27249,5.670847 -1.50344,2.485572 -2.35893,2.868401 -6.58744,2.947879 -4.35226,0.0818 -5.04658,-0.216109 -6.65052,-2.853579 z" id="path4474" style="fill:#fe0000"/>
      <path d="M 339.9217,11.146309 C 340.83107,9.4471299 341.99317,9 345.5,9 c 3.50683,0 4.66893,0.4471299 5.5783,2.146309 1.05737,1.975712 0.96081,2.085759 -1.21481,1.384521 C 348.56357,12.111848 346.6,11.769044 345.5,11.769044 c -1.1,0 -3.06357,0.342804 -4.36349,0.761786 -2.17562,0.701238 -2.27218,0.591191 -1.21481,-1.384521 z" id="path17444" style="fill:#0000fe"/>
      <path d="m 339.9217,17.853691 c -1.05737,-1.975712 -0.96081,-2.085759 1.21481,-1.384521 1.29992,0.418982 3.26349,0.761786 4.36349,0.761786 1.1,0 3.06357,-0.342804 4.36349,-0.761786 2.17562,-0.701238 2.27218,-0.591191 1.21481,1.384521 C 350.16893,19.55287 349.00683,20 345.5,20 c -3.50683,0 -4.66893,-0.44713 -5.5783,-2.146309 z" id="path4412" style="fill:#0000fe"/>
    </g>
    <g id="cf">
      <path d="m 78.25,117.25 c 0,2.762 -2.238,5 -5,5 H 5.75 c -2.761,0 -5,-2.238 -5,-5 V 5.75 c 0,-2.762 2.239,-5 5,-5 h 67.5 c 2.762,0 5,2.238 5,5 v 111.5 z" id="path8383" style="fill:#ffffff;stroke:#000000;stroke-width:1.5"/>
      <path d="m 72.226712,114.23425 c 0,2.61259 -1.890126,4.72953 -4.222801,4.72953 H 10.996089 c -2.3318303,0 -4.2228009,-2.11694 -4.2228009,-4.72953 V 8.7657498 c 0,-2.6125922 1.8909706,-4.7295293 4.2228009,-4.7295293 h 57.007822 c 2.332675,0 4.222801,2.1169371 4.222801,4.7295293 V 114.23425 z" id="path10068" style="fill:#ffffff;stroke:#000000;stroke-width:1"/>
    </g>
    <g id="indicator-background">
      <path d="M 4.9840521,32.578091 C 1.870653,29.325097 2.1087365,23.444548 5.4655326,20.6857 c 2.2986147,-1.889165 5.5112604,-0.81715 6.9669734,2.324782 3.118592,6.731 -2.8390681,14.383666 -7.4484539,9.567609 z" id="path6341-2" style="stroke:#000000"/>
    </g>
    <g transform="matrix(0.34594092,0,0,0.34594092,-185.65022,-104.46734)" id="letter-10">
      <path d="m 551.3495,394.97529 c -0.78398,-0.78398 -1.22919,-4.3821 -1.22919,-9.93403 l 0,-8.70485 c 0,-3.14229 -0.45504,-7.56314 0.16329,-9.22887 0.85361,-2.29958 1.59396,-2.99524 3.20345,-2.76569 2.07275,0.29562 2.13326,0.74353 2.13326,15.79055 0,13.06475 -0.23781,15.53211 -1.52081,15.77919 -0.83645,0.16109 -2.07395,-0.26025 -2.75,-0.9363 z" id="path6265" style="fill:#000000"/>
      <path d="m 558.26396,390.50393 c -3.12324,-7.04142 -3.39374,-18.83549 0.95469,-24.44186 3.95898,-5.10425 10.38346,-2.42768 12.10902,4.99529 4.65563,20.02749 -7.08212,32.93224 -13.06371,19.44657 z m 8.79015,1.81127 c 4.22384,-5.82341 4.05045,-21.3955 0.64672,-24.35911 -7.36838,-6.41559 -10.20856,3.82631 -9.58242,13.89657 0.47537,7.64533 5.35707,15.39638 8.9357,10.46254 z m -2.95082,-1.03006 c -3.24901,-0.23462 -5.52162,-10.89309 -4.79797,-14.80732 0.81078,-4.3856 1.88658,-8.72653 4.76725,-8.5334 2.44993,0.16427 5.07549,2.88006 5.07549,11.13278 0,9.67863 -2.78144,12.37139 -5.04477,12.20794 z m 1.27769,-3.14676 c 2.61258,-2.90447 2.73762,-17.01113 -0.96192,-18.11955 -3.15048,-0.94392 -3.56828,9.14967 -1.78701,16.1632 0.48357,1.90401 1.76303,3.05242 2.74893,1.95635 z" id="path6257-9" style="fill:#000000"/>
      <path d="m 564.10329,391.28514 c -3.24901,-0.23462 -5.52162,-10.89309 -4.79797,-14.80732 0.81078,-4.3856 1.88658,-8.72653 4.76725,-8.5334 2.44993,0.16427 5.07549,2.88006 5.07549,11.13278 0,9.67863 -2.78144,12.37139 -5.04477,12.20794 z m 2.95082,1.03006 c 4.22384,-5.82341 4.05045,-21.3955 0.64672,-24.35911 -7.36838,-6.41559 -10.20856,3.82631 -9.58242,13.89657 0.47537,7.64533 5.35707,15.39638 8.9357,10.46254 z m -12.9338,-12.1691 c 0,-12.8887 -0.92171,-17.43238 -2.36762,-11.67144 0.12254,5.95036 0.31608,10.4154 0.36762,15.06445 0.071,6.40427 0.39618,10.60699 1,10.60699 0.61905,0 1,-5.33333 1,-14 z" id="path6520" style="fill:#ffffff"/>
    </g>
    <g transform="translate(-0.975,-6)" id="it10">
      <use id="use8679" x="0" y="0" width="1027" height="615" xlink:href="#indicator-background"/>
      <use id="use8681" x="0" y="0" width="1027" height="615" xlink:href="#letter-10"/>
    </g>
    <g id="ib10">
      <use transform="matrix(-1,0,0,-1,79,123)" id="use8726" x="0" y="0" width="1027" height="615" xlink:href="#it10"/>
    </g>
  <g id="10_diamond">
    <use id="use11218" x="711" y="123" width="1027" height="615" xlink:href="#cf"/>
    <use transform="translate(725.5,146)" id="use9821" x="0" y="0" width="1027" height="615" xlink:href="#dl"/>
    <use transform="translate(725.5,164)" id="use9823" x="0" y="0" width="1027" height="615" xlink:href="#dl"/>
    <use transform="translate(740.5,137)" id="use9825" x="0" y="0" width="1027" height="615" xlink:href="#dl"/>
    <use transform="translate(740.5,155)" id="use9827" x="0" y="0" width="1027" height="615" xlink:href="#dl"/>
    <use transform="translate(740.5,173)" id="use9829" x="0" y="0" width="1027" height="615" xlink:href="#dl"/>
    <use transform="translate(760.5,137)" id="use9831" x="0" y="0" width="1027" height="615" xlink:href="#dl"/>
    <use transform="translate(760.5,155)" id="use9833" x="0" y="0" width="1027" height="615" xlink:href="#dl"/>
    <use transform="translate(760.5,173)" id="use9835" x="0" y="0" width="1027" height="615" xlink:href="#dl"/>
    <use transform="translate(775.5,146)" id="use9837" x="0" y="0" width="1027" height="615" xlink:href="#dl"/>
    <use transform="translate(775.5,164)" id="use9839" x="0" y="0" width="1027" height="615" xlink:href="#dl"/>
    <use transform="matrix(-1,0,0,-1,775.5,223)" id="use9841" x="0" y="0" width="1027" height="615" xlink:href="#dl"/>
    <use transform="matrix(-1,0,0,-1,775.5,205)" id="use9843" x="0" y="0" width="1027" height="615" xlink:href="#dl"/>
    <use transform="matrix(-1,0,0,-1,760.5,232)" id="use9845" x="0" y="0" width="1027" height="615" xlink:href="#dl"/>
    <use transform="matrix(-1,0,0,-1,760.5,214)" id="use9847" x="0" y="0" width="1027" height="615" xlink:href="#dl"/>
    <use transform="matrix(-1,0,0,-1,760.5,196)" id="use9849" x="0" y="0" width="1027" height="615" xlink:href="#dl"/>
    <use transform="matrix(-1,0,0,-1,740.5,232)" id="use9851" x="0" y="0" width="1027" height="615" xlink:href="#dl"/>
    <use transform="matrix(-1,0,0,-1,740.5,214)" id="use9853" x="0" y="0" width="1027" height="615" xlink:href="#dl"/>
    <use transform="matrix(-1,0,0,-1,740.5,196)" id="use9855" x="0" y="0" width="1027" height="615" xlink:href="#dl"/>
    <use transform="matrix(-1,0,0,-1,725.5,223)" id="use9857" x="0" y="0" width="1027" height="615" xlink:href="#dl"/>
    <use transform="matrix(-1,0,0,-1,725.5,205)" id="use9859" x="0" y="0" width="1027" height="615" xlink:href="#dl"/>
    <use id="use11220" style="fill:#df9000" x="711" y="123" width="1027" height="615" xlink:href="#it10"/>
    <use id="use11222" style="fill:#df9000" x="711" y="123" width="1027" height="615" xlink:href="#ib10"/>
  </g>
  </defs>
  <use xlink:href="#10_diamond" transform="scale(180,280)scale(0.0126582278481, 0.00813008130081)translate(-711,-123)"/>
</svg>