<?xml version="1.0" encoding="UTF-8" standalone="no"?>
<!-- Created with Inkscape (http://www.inkscape.org/) -->
<svg xmlns:dc="http://purl.org/dc/elements/1.1/" xmlns:cc="http://creativecommons.org/ns#" xmlns:rdf="http://www.w3.org/1999/02/22-rdf-syntax-ns#" xmlns:svg="http://www.w3.org/2000/svg" xmlns="http://www.w3.org/2000/svg" xmlns:xlink="http://www.w3.org/1999/xlink" version="1.1" width="180" height="280" viewBox="0 0 180 280" id="svg10047">
  <metadata id="metadata16869">
    <rdf:RDF>
      <cc:Work rdf:about="">
        <dc:format>image/svg+xml</dc:format>
        <dc:type rdf:resource="http://purl.org/dc/dcmitype/StillImage"/>
        <dc:title/>
      </cc:Work>
    </rdf:RDF>
  </metadata>
  <defs id="defs3059">

    <g transform="translate(-346,-13.597296)" id="dl">
      <path d="m 342,21.316021 c -4.23127,-4.185585 -5.01467,-6.38697 -3.39057,-9.527637 0.78343,-1.514992 2.65972,-3.3933288 4.16954,-4.1740827 2.3728,-1.2270258 3.11474,-1.2258833 5.4705,0.00842 3.69088,1.9338476 5.91235,6.3069767 4.52518,8.9081627 -1.23516,2.316167 -6.59227,7.515981 -7.58637,7.363626 C 344.80973,23.836496 343.375,22.676174 342,21.316021 z" id="path4598" style="fill:#dfc800"/>
      <path d="m 343.63837,22.5 c -0.31658,-0.825 -0.13972,-1.5 0.39301,-1.5 0.53274,0 1.00415,0.5625 1.04757,1.25 0.0632,1 0.17982,1 0.58333,0 0.27741,-0.6875 0.90276,-1.25 1.38967,-1.25 0.4869,0 0.62626,0.675 0.30968,1.5 -0.31659,0.825 -1.15432,1.5 -1.86163,1.5 -0.70731,0 -1.54504,-0.675 -1.86163,-1.5 z" id="path4486" style="fill:#fe0000"/>
      <path d="m 347.09068,8.0772074 c -0.77512,-0.4906919 -2.01262,-0.6606562 -2.75,-0.3776984 -2.11462,0.8114588 -1.57691,1.3018064 1.40932,1.2851782 2.00139,-0.011144 2.36635,-0.258181 1.34068,-0.9074798 z m 5.17563,7.2223556 c 1.44754,-0.826914 -0.22162,-2.030627 -3.5691,-2.573848 -3.9979,-0.64877 -10.22034,0.465124 -10.14051,1.81528 0.11671,1.974254 10.56911,2.552596 13.70961,0.758568 z m -13.35528,2.313746 c -1.60643,-2.641564 -1.64129,-3.234256 -0.3384,-5.753763 0.79888,-1.544864 2.67894,-3.4514338 4.1779,-4.2368208 2.35576,-1.2343072 3.0977,-1.2354497 5.4705,-0.00842 1.50982,0.7807539 3.40002,2.6859908 4.20045,4.2338608 1.30115,2.516147 1.27228,3.116943 -0.27249,5.670847 -1.50344,2.485572 -2.35893,2.868401 -6.58744,2.947879 -4.35226,0.0818 -5.04658,-0.216109 -6.65052,-2.853579 z" id="path4474" style="fill:#fe0000"/>
      <path d="M 339.9217,11.146309 C 340.83107,9.4471299 341.99317,9 345.5,9 c 3.50683,0 4.66893,0.4471299 5.5783,2.146309 1.05737,1.975712 0.96081,2.085759 -1.21481,1.384521 C 348.56357,12.111848 346.6,11.769044 345.5,11.769044 c -1.1,0 -3.06357,0.342804 -4.36349,0.761786 -2.17562,0.701238 -2.27218,0.591191 -1.21481,-1.384521 z" id="path17444" style="fill:#0000fe"/>
      <path d="m 339.9217,17.853691 c -1.05737,-1.975712 -0.96081,-2.085759 1.21481,-1.384521 1.29992,0.418982 3.26349,0.761786 4.36349,0.761786 1.1,0 3.06357,-0.342804 4.36349,-0.761786 2.17562,-0.701238 2.27218,-0.591191 1.21481,1.384521 C 350.16893,19.55287 349.00683,20 345.5,20 c -3.50683,0 -4.66893,-0.44713 -5.5783,-2.146309 z" id="path4412" style="fill:#0000fe"/>
    </g>
    <g id="cf">
      <path d="m 78.25,117.25 c 0,2.762 -2.238,5 -5,5 H 5.75 c -2.761,0 -5,-2.238 -5,-5 V 5.75 c 0,-2.762 2.239,-5 5,-5 h 67.5 c 2.762,0 5,2.238 5,5 v 111.5 z" id="path8383" style="fill:#ffffff;stroke:#000000;stroke-width:1.5"/>
      <path d="m 72.226712,114.23425 c 0,2.61259 -1.890126,4.72953 -4.222801,4.72953 H 10.996089 c -2.3318303,0 -4.2228009,-2.11694 -4.2228009,-4.72953 V 8.7657498 c 0,-2.6125922 1.8909706,-4.7295293 4.2228009,-4.7295293 h 57.007822 c 2.332675,0 4.222801,2.1169371 4.222801,4.7295293 V 114.23425 z" id="path10068" style="fill:#ffffff;stroke:#000000;stroke-width:1"/>
    </g>
    <g transform="matrix(0.34594092,0,0,0.34594092,-164.70913,-104.56216)" id="letter-8">
      <path d="m 493.3766,392.88508 c -3.84262,-3.23335 -4.7799,-7.34379 -2.68246,-11.76383 1.23586,-2.60439 1.36669,-4.01432 0.56753,-6.11627 -3.27617,-8.61698 7.76569,-15.51914 14.32833,-8.95651 2.71884,2.71884 3.49824,7.45313 1.69593,10.3015 -0.59293,0.93706 -0.41344,2.14653 0.51531,3.47251 2.49504,3.56216 1.80949,9.35911 -1.49796,12.66655 -3.80474,3.80474 -8.69752,3.95465 -12.92668,0.39605 z m 11.73898,-1.85505 c 2.73206,-2.90814 3.01235,-7.59301 0.66832,-11.17045 -1.2615,-1.92529 -1.44144,-2.96357 -0.65064,-3.75437 1.64143,-1.64143 1.31505,-6.79037 -0.56189,-8.86436 -2.53232,-2.79819 -7.75997,-2.38795 -10.27243,0.80612 -2.41983,3.07631 -2.61016,5.2477 -0.69013,7.8735 1.20471,1.64753 1.12412,2.24003 -0.62683,4.60831 -1.53983,2.08273 -1.8535,3.54807 -1.34253,6.27177 1.21856,6.49544 9.04096,8.9505 13.47613,4.22948 z m -9.88922,-1.61792 c -2.54626,-2.54626 -2.54626,-5.45374 0,-8 2.49581,-2.49581 6.17303,-2.57127 8.34501,-0.17126 5.26223,5.8147 -2.80364,13.71263 -8.34501,8.17126 z m 7.5,-4 c 0,-2.89322 -0.39962,-3.55665 -2.30504,-3.82676 -4.25853,-0.60369 -6.85067,3.77105 -3.95198,6.66974 0.68363,0.68363 2.37113,1.11113 3.75,0.95 2.14269,-0.2504 2.50702,-0.80161 2.50702,-3.79298 z m -7.00846,-11.37256 c -1.25023,-1.90811 -1.38254,-2.9626 -0.56367,-4.49266 2.2087,-4.12699 7.63232,-3.73532 8.72802,0.6303 1.38683,5.5256 -5.07238,8.5813 -8.16435,3.86236 z m 6.3286,-2.38191 c 0.40701,-2.8663 -2.41029,-4.08396 -4.53443,-1.95982 -2.12414,2.12414 -0.90648,4.94144 1.95982,4.53443 1.45196,-0.20618 2.36843,-1.12265 2.57461,-2.57461 z" id="path6237" style="fill:#000000"/>
      <path d="m 495.7179,374.03955 c -1.25023,-1.90811 -1.38254,-2.9626 -0.56367,-4.49266 2.2087,-4.12699 7.63232,-3.73532 8.72802,0.6303 1.38683,5.5256 -5.07238,8.5813 -8.16435,3.86236 z m -0.49154,15.37256 c -2.54626,-2.54626 -2.54626,-5.45374 0,-8 2.49581,-2.49581 6.17303,-2.57127 8.34501,-0.17126 5.26223,5.8147 -2.80364,13.71263 -8.34501,8.17126 z m 9.88922,1.61792 c 2.73206,-2.90814 3.01235,-7.59301 0.66832,-11.17045 -1.2615,-1.92529 -1.44144,-2.96357 -0.65064,-3.75437 1.64143,-1.64143 1.31505,-6.79037 -0.56189,-8.86436 -2.53232,-2.79819 -7.75997,-2.38795 -10.27243,0.80612 -2.41983,3.07631 -2.61016,5.2477 -0.69013,7.8735 1.20471,1.64753 1.12412,2.24003 -0.62683,4.60831 -1.53983,2.08273 -1.8535,3.54807 -1.34253,6.27177 1.21856,6.49544 9.04096,8.9505 13.47613,4.22948 z" id="path6552" style="fill:#ffffff"/>
    </g>
    <g id="indicator-background">
      <path d="M 4.9840521,32.578091 C 1.870653,29.325097 2.1087365,23.444548 5.4655326,20.6857 c 2.2986147,-1.889165 5.5112604,-0.81715 6.9669734,2.324782 3.118592,6.731 -2.8390681,14.383666 -7.4484539,9.567609 z" id="path6341-2" style="stroke:#000000"/>
    </g>
    <g id="ib8">
      <use transform="matrix(-1,0,0,-1,79,123)" id="use8720" x="0" y="0" width="1027" height="615" xlink:href="#it8"/>
    </g>
    <g transform="translate(-0.975,-6)" id="it8">
      <use id="use8669" x="0" y="0" width="1027" height="615" xlink:href="#indicator-background"/>
      <use id="use8671" x="0" y="0" width="1027" height="615" xlink:href="#letter-8"/>
    </g>
  <g id="8_diamond">
    <use id="use10990" x="553" y="123" width="1027" height="615" xlink:href="#cf"/>
    <use transform="translate(571.5,172)" id="use9581" x="0" y="0" width="1027" height="615" xlink:href="#dl"/>
    <use transform="translate(571.5,159)" id="use9583" x="0" y="0" width="1027" height="615" xlink:href="#dl"/>
    <use transform="translate(571.5,146)" id="use9585" x="0" y="0" width="1027" height="615" xlink:href="#dl"/>
    <use transform="translate(592.5,166)" id="use9587" x="0" y="0" width="1027" height="615" xlink:href="#dl"/>
    <use transform="translate(592.5,153)" id="use9589" x="0" y="0" width="1027" height="615" xlink:href="#dl"/>
    <use transform="translate(613.5,172)" id="use9591" x="0" y="0" width="1027" height="615" xlink:href="#dl"/>
    <use transform="translate(613.5,159)" id="use9593" x="0" y="0" width="1027" height="615" xlink:href="#dl"/>
    <use transform="translate(613.5,146)" id="use9595" x="0" y="0" width="1027" height="615" xlink:href="#dl"/>
    <use transform="matrix(-1,0,0,-1,612.5,197)" id="use9597" x="0" y="0" width="1027" height="615" xlink:href="#dl"/>
    <use transform="matrix(-1,0,0,-1,612.5,210)" id="use9599" x="0" y="0" width="1027" height="615" xlink:href="#dl"/>
    <use transform="matrix(-1,0,0,-1,612.5,223)" id="use9601" x="0" y="0" width="1027" height="615" xlink:href="#dl"/>
    <use transform="matrix(-1,0,0,-1,591.5,203)" id="use9603" x="0" y="0" width="1027" height="615" xlink:href="#dl"/>
    <use transform="matrix(-1,0,0,-1,591.5,216)" id="use9605" x="0" y="0" width="1027" height="615" xlink:href="#dl"/>
    <use transform="matrix(-1,0,0,-1,570.5,197)" id="use9607" x="0" y="0" width="1027" height="615" xlink:href="#dl"/>
    <use transform="matrix(-1,0,0,-1,570.5,210)" id="use9609" x="0" y="0" width="1027" height="615" xlink:href="#dl"/>
    <use transform="matrix(-1,0,0,-1,570.5,223)" id="use9611" x="0" y="0" width="1027" height="615" xlink:href="#dl"/>
    <use id="use10992" style="fill:#df9000" x="553" y="123" width="1027" height="615" xlink:href="#it8"/>
    <use id="use10994" style="fill:#df9000" x="553" y="123" width="1027" height="615" xlink:href="#ib8"/>
  </g>
  </defs>
  <use xlink:href="#8_diamond" transform="scale(180,280)scale(0.0126582278481, 0.00813008130081)translate(-553,-123)"/>
</svg>