<?xml version="1.0" encoding="UTF-8" standalone="no"?>
<!-- Created with Inkscape (http://www.inkscape.org/) -->
<svg xmlns:dc="http://purl.org/dc/elements/1.1/" xmlns:cc="http://creativecommons.org/ns#" xmlns:rdf="http://www.w3.org/1999/02/22-rdf-syntax-ns#" xmlns:svg="http://www.w3.org/2000/svg" xmlns="http://www.w3.org/2000/svg" xmlns:xlink="http://www.w3.org/1999/xlink" version="1.1" width="180" height="280" viewBox="0 0 180 280" id="svg10047">
  <metadata id="metadata16869">
    <rdf:RDF>
      <cc:Work rdf:about="">
        <dc:format>image/svg+xml</dc:format>
        <dc:type rdf:resource="http://purl.org/dc/dcmitype/StillImage"/>
        <dc:title/>
      </cc:Work>
    </rdf:RDF>
  </metadata>
  <defs id="defs3059">

    <g id="ib7">
      <use transform="matrix(-1,0,0,-1,79,123)" id="use8717" x="0" y="0" width="1027" height="615" xlink:href="#it7"/>
    </g>
    <g transform="translate(-0.975,-6)" id="it7">
      <use id="use8664" x="0" y="0" width="1027" height="615" xlink:href="#indicator-background"/>
      <use id="use8666" x="0" y="0" width="1027" height="615" xlink:href="#letter-7"/>
    </g>
    <g transform="matrix(0.34594092,0,0,0.34594092,-163.18455,-84.57127)" id="letter-7">
      <path d="m 499.31654,338.37114 c -0.38987,-0.38987 -0.70885,-5.75375 -0.70885,-11.91974 0,-13.00084 -0.3494,-13.83767 -8.38565,-14.44081 -4.29569,-0.3224 -4.95367,0.76881 -5.11435,-2.51497 -0.11208,-2.29066 0.76686,-2.04431 5.20183,-2.30059 6.28356,-0.3631 10.63469,1.61689 12.81387,5.83095 1.18911,2.29948 1.48381,5.61026 1.26693,14.23307 -0.26263,10.44133 -0.42709,11.25725 -2.32378,11.52875 -1.12263,0.1607 -2.36013,-0.0268 -2.75,-0.41666 z" id="path6146" style="fill:#000000"/>
      <path d="m 502.60769,325.9187 c 0,-10.90958 0.20543,-12.1546 -2.24861,-14.47706 -2.45404,-2.32246 -4.2311,-2.66172 -8.87512,-3.03645 -6.60876,-0.53327 -5.65546,2.04177 -3.61004,2.15279 5.37318,0.29163 8.67528,0.0376 10.75921,2.46308 1.59139,1.85223 1.97456,3.35513 1.97456,12.97456 0,6.66667 0.39394,11 1,11 0.60648,0 1,-4.35897 1,-11.07692 z" id="path6148" style="fill:#ffffff"/>
    </g>
  <g id="7_diamond">
    <use id="use10888" x="474" y="123" width="1027" height="615" xlink:href="#cf"/>
    <use transform="translate(492.5,172)" id="use9473" x="0" y="0" width="1027" height="615" xlink:href="#dl"/>
    <use transform="translate(492.5,159)" id="use9475" x="0" y="0" width="1027" height="615" xlink:href="#dl"/>
    <use transform="translate(492.5,146)" id="use9477" x="0" y="0" width="1027" height="615" xlink:href="#dl"/>
    <use transform="translate(513.5,137)" id="use9479" x="0" y="0" width="1027" height="615" xlink:href="#dl"/>
    <use transform="translate(534.5,172)" id="use9481" x="0" y="0" width="1027" height="615" xlink:href="#dl"/>
    <use transform="translate(534.5,159)" id="use9483" x="0" y="0" width="1027" height="615" xlink:href="#dl"/>
    <use transform="translate(534.5,146)" id="use9485" x="0" y="0" width="1027" height="615" xlink:href="#dl"/>
    <use transform="matrix(-1,0,0,-1,533.5,197)" id="use9487" x="0" y="0" width="1027" height="615" xlink:href="#dl"/>
    <use transform="matrix(-1,0,0,-1,533.5,210)" id="use9489" x="0" y="0" width="1027" height="615" xlink:href="#dl"/>
    <use transform="matrix(-1,0,0,-1,533.5,223)" id="use9491" x="0" y="0" width="1027" height="615" xlink:href="#dl"/>
    <use transform="matrix(-1,0,0,-1,512.5,232)" id="use9493" x="0" y="0" width="1027" height="615" xlink:href="#dl"/>
    <use transform="matrix(-1,0,0,-1,491.5,197)" id="use9495" x="0" y="0" width="1027" height="615" xlink:href="#dl"/>
    <use transform="matrix(-1,0,0,-1,491.5,210)" id="use9497" x="0" y="0" width="1027" height="615" xlink:href="#dl"/>
    <use transform="matrix(-1,0,0,-1,491.5,223)" id="use9499" x="0" y="0" width="1027" height="615" xlink:href="#dl"/>
    <use id="use10890" style="fill:#df9000" x="474" y="123" width="1027" height="615" xlink:href="#it7"/>
    <use id="use10892" style="fill:#df9000" x="474" y="123" width="1027" height="615" xlink:href="#ib7"/>
  </g>
    <g transform="translate(-346,-13.597296)" id="dl">
      <path d="m 342,21.316021 c -4.23127,-4.185585 -5.01467,-6.38697 -3.39057,-9.527637 0.78343,-1.514992 2.65972,-3.3933288 4.16954,-4.1740827 2.3728,-1.2270258 3.11474,-1.2258833 5.4705,0.00842 3.69088,1.9338476 5.91235,6.3069767 4.52518,8.9081627 -1.23516,2.316167 -6.59227,7.515981 -7.58637,7.363626 C 344.80973,23.836496 343.375,22.676174 342,21.316021 z" id="path4598" style="fill:#dfc800"/>
      <path d="m 343.63837,22.5 c -0.31658,-0.825 -0.13972,-1.5 0.39301,-1.5 0.53274,0 1.00415,0.5625 1.04757,1.25 0.0632,1 0.17982,1 0.58333,0 0.27741,-0.6875 0.90276,-1.25 1.38967,-1.25 0.4869,0 0.62626,0.675 0.30968,1.5 -0.31659,0.825 -1.15432,1.5 -1.86163,1.5 -0.70731,0 -1.54504,-0.675 -1.86163,-1.5 z" id="path4486" style="fill:#fe0000"/>
      <path d="m 347.09068,8.0772074 c -0.77512,-0.4906919 -2.01262,-0.6606562 -2.75,-0.3776984 -2.11462,0.8114588 -1.57691,1.3018064 1.40932,1.2851782 2.00139,-0.011144 2.36635,-0.258181 1.34068,-0.9074798 z m 5.17563,7.2223556 c 1.44754,-0.826914 -0.22162,-2.030627 -3.5691,-2.573848 -3.9979,-0.64877 -10.22034,0.465124 -10.14051,1.81528 0.11671,1.974254 10.56911,2.552596 13.70961,0.758568 z m -13.35528,2.313746 c -1.60643,-2.641564 -1.64129,-3.234256 -0.3384,-5.753763 0.79888,-1.544864 2.67894,-3.4514338 4.1779,-4.2368208 2.35576,-1.2343072 3.0977,-1.2354497 5.4705,-0.00842 1.50982,0.7807539 3.40002,2.6859908 4.20045,4.2338608 1.30115,2.516147 1.27228,3.116943 -0.27249,5.670847 -1.50344,2.485572 -2.35893,2.868401 -6.58744,2.947879 -4.35226,0.0818 -5.04658,-0.216109 -6.65052,-2.853579 z" id="path4474" style="fill:#fe0000"/>
      <path d="M 339.9217,11.146309 C 340.83107,9.4471299 341.99317,9 345.5,9 c 3.50683,0 4.66893,0.4471299 5.5783,2.146309 1.05737,1.975712 0.96081,2.085759 -1.21481,1.384521 C 348.56357,12.111848 346.6,11.769044 345.5,11.769044 c -1.1,0 -3.06357,0.342804 -4.36349,0.761786 -2.17562,0.701238 -2.27218,0.591191 -1.21481,-1.384521 z" id="path17444" style="fill:#0000fe"/>
      <path d="m 339.9217,17.853691 c -1.05737,-1.975712 -0.96081,-2.085759 1.21481,-1.384521 1.29992,0.418982 3.26349,0.761786 4.36349,0.761786 1.1,0 3.06357,-0.342804 4.36349,-0.761786 2.17562,-0.701238 2.27218,-0.591191 1.21481,1.384521 C 350.16893,19.55287 349.00683,20 345.5,20 c -3.50683,0 -4.66893,-0.44713 -5.5783,-2.146309 z" id="path4412" style="fill:#0000fe"/>
    </g>
    <g id="cf">
      <path d="m 78.25,117.25 c 0,2.762 -2.238,5 -5,5 H 5.75 c -2.761,0 -5,-2.238 -5,-5 V 5.75 c 0,-2.762 2.239,-5 5,-5 h 67.5 c 2.762,0 5,2.238 5,5 v 111.5 z" id="path8383" style="fill:#ffffff;stroke:#000000;stroke-width:1.5"/>
      <path d="m 72.226712,114.23425 c 0,2.61259 -1.890126,4.72953 -4.222801,4.72953 H 10.996089 c -2.3318303,0 -4.2228009,-2.11694 -4.2228009,-4.72953 V 8.7657498 c 0,-2.6125922 1.8909706,-4.7295293 4.2228009,-4.7295293 h 57.007822 c 2.332675,0 4.222801,2.1169371 4.222801,4.7295293 V 114.23425 z" id="path10068" style="fill:#ffffff;stroke:#000000;stroke-width:1"/>
    </g>
    <g id="indicator-background">
      <path d="M 4.9840521,32.578091 C 1.870653,29.325097 2.1087365,23.444548 5.4655326,20.6857 c 2.2986147,-1.889165 5.5112604,-0.81715 6.9669734,2.324782 3.118592,6.731 -2.8390681,14.383666 -7.4484539,9.567609 z" id="path6341-2" style="stroke:#000000"/>
    </g>
  </defs>
  <use xlink:href="#7_diamond" transform="scale(180,280)scale(0.0126582278481, 0.00813008130081)translate(-474,-123)"/>
</svg>