<?xml version="1.0" encoding="UTF-8" standalone="no"?>
<!-- Created with Inkscape (http://www.inkscape.org/) -->
<svg xmlns:dc="http://purl.org/dc/elements/1.1/" xmlns:cc="http://creativecommons.org/ns#" xmlns:rdf="http://www.w3.org/1999/02/22-rdf-syntax-ns#" xmlns:svg="http://www.w3.org/2000/svg" xmlns="http://www.w3.org/2000/svg" xmlns:xlink="http://www.w3.org/1999/xlink" version="1.1" width="180" height="280" viewBox="0 0 180 280" id="svg10047">
  <metadata id="metadata16869">
    <rdf:RDF>
      <cc:Work rdf:about="">
        <dc:format>image/svg+xml</dc:format>
        <dc:type rdf:resource="http://purl.org/dc/dcmitype/StillImage"/>
        <dc:title/>
      </cc:Work>
    </rdf:RDF>
  </metadata>
  <defs id="defs3059">

    <g id="indicator-background">
      <path d="M 4.9840521,32.578091 C 1.870653,29.325097 2.1087365,23.444548 5.4655326,20.6857 c 2.2986147,-1.889165 5.5112604,-0.81715 6.9669734,2.324782 3.118592,6.731 -2.8390681,14.383666 -7.4484539,9.567609 z" id="path6341-2" style="stroke:#000000"/>
    </g>
    <g transform="matrix(0.34594092,0,0,0.34594092,-190.51862,-98.41045)" id="letter-9">
      <path d="m 577.77581,355.77274 c 0,-3.56828 -2.68479,-5.61214 -5.25,-3.99669 -3.92319,2.47064 -1.97467,7.72752 2.6644,7.18826 2.11525,-0.24589 2.5856,-0.82647 2.5856,-3.19157 z m -7.5,3.39101 c -2.73375,-2.73375 -2.5087,-5.45469 0.65713,-7.94494 2.88446,-2.26892 5.94934,-1.98979 8.09287,0.73704 4.4806,5.69989 -3.60084,12.35706 -8.75,7.2079 z m 7.4552,16.37882 c 3.05147,-1.17096 4.5448,-5.94019 4.5448,-14.51471 0,-7.07898 -0.30528,-8.56016 -2.17431,-10.54966 -4.48503,-4.77409 -13.82569,-1.27072 -13.82569,5.18555 0,5.51474 9.10426,9.99574 12.8,6.3 0.93333,-0.93333 1.2,-0.29664 1.2,2.86514 0,4.2808 -2.98514,9.33486 -5.51356,9.33486 -0.75262,0 -1.64652,0.45 -1.98644,1 -0.68535,1.10892 2.43162,1.34721 4.9552,0.37882 z m -5.78853,1.95451 c -1.57756,-1.57756 -0.54029,-4.32695 1.85971,-4.92931 2.72105,-0.68294 4.47362,-3.11167 4.47362,-6.19961 0,-1.51792 -0.53245,-1.82528 -2.50784,-1.44766 -3.8984,0.74522 -8.17054,-1.55921 -9.98698,-5.38708 -4.62522,-9.74693 7.95608,-18.06226 15.66494,-10.35339 3.01268,3.01268 3.01587,3.02827 2.67308,13.08363 -0.3385,9.92961 -0.38789,10.10727 -3.60898,12.98373 -3.05457,2.72776 -7.04236,3.77488 -8.56755,2.24969 z" id="path6249" style="fill:#000000"/>
      <path d="m 570.27581,359.16375 c -2.73375,-2.73375 -2.5087,-5.45469 0.65713,-7.94494 2.88446,-2.26892 5.94934,-1.98979 8.09287,0.73704 4.4806,5.69989 -3.60084,12.35706 -8.75,7.2079 z m 7.4552,16.37882 c 3.05147,-1.17096 4.5448,-5.94019 4.5448,-14.51471 0,-7.07898 -0.30528,-8.56016 -2.17431,-10.54966 -4.48503,-4.77409 -13.82569,-1.27072 -13.82569,5.18555 0,5.51474 9.10426,9.99574 12.8,6.3 0.93333,-0.93333 1.2,-0.29664 1.2,2.86514 0,4.2808 -2.98514,9.33486 -5.51356,9.33486 -0.75262,0 -1.64652,0.45 -1.98644,1 -0.68535,1.10892 2.43162,1.34721 4.9552,0.37882 z" id="path6425" style="fill:#ffffff"/>
    </g>
    <g id="cf">
      <path d="m 78.25,117.25 c 0,2.762 -2.238,5 -5,5 H 5.75 c -2.761,0 -5,-2.238 -5,-5 V 5.75 c 0,-2.762 2.239,-5 5,-5 h 67.5 c 2.762,0 5,2.238 5,5 v 111.5 z" id="path8383" style="fill:#ffffff;stroke:#000000;stroke-width:1.5"/>
      <path d="m 72.226712,114.23425 c 0,2.61259 -1.890126,4.72953 -4.222801,4.72953 H 10.996089 c -2.3318303,0 -4.2228009,-2.11694 -4.2228009,-4.72953 V 8.7657498 c 0,-2.6125922 1.8909706,-4.7295293 4.2228009,-4.7295293 h 57.007822 c 2.332675,0 4.222801,2.1169371 4.222801,4.7295293 V 114.23425 z" id="path10068" style="fill:#ffffff;stroke:#000000;stroke-width:1"/>
    </g>
    <g transform="translate(-346,-13.597296)" id="dl">
      <path d="m 342,21.316021 c -4.23127,-4.185585 -5.01467,-6.38697 -3.39057,-9.527637 0.78343,-1.514992 2.65972,-3.3933288 4.16954,-4.1740827 2.3728,-1.2270258 3.11474,-1.2258833 5.4705,0.00842 3.69088,1.9338476 5.91235,6.3069767 4.52518,8.9081627 -1.23516,2.316167 -6.59227,7.515981 -7.58637,7.363626 C 344.80973,23.836496 343.375,22.676174 342,21.316021 z" id="path4598" style="fill:#dfc800"/>
      <path d="m 343.63837,22.5 c -0.31658,-0.825 -0.13972,-1.5 0.39301,-1.5 0.53274,0 1.00415,0.5625 1.04757,1.25 0.0632,1 0.17982,1 0.58333,0 0.27741,-0.6875 0.90276,-1.25 1.38967,-1.25 0.4869,0 0.62626,0.675 0.30968,1.5 -0.31659,0.825 -1.15432,1.5 -1.86163,1.5 -0.70731,0 -1.54504,-0.675 -1.86163,-1.5 z" id="path4486" style="fill:#fe0000"/>
      <path d="m 347.09068,8.0772074 c -0.77512,-0.4906919 -2.01262,-0.6606562 -2.75,-0.3776984 -2.11462,0.8114588 -1.57691,1.3018064 1.40932,1.2851782 2.00139,-0.011144 2.36635,-0.258181 1.34068,-0.9074798 z m 5.17563,7.2223556 c 1.44754,-0.826914 -0.22162,-2.030627 -3.5691,-2.573848 -3.9979,-0.64877 -10.22034,0.465124 -10.14051,1.81528 0.11671,1.974254 10.56911,2.552596 13.70961,0.758568 z m -13.35528,2.313746 c -1.60643,-2.641564 -1.64129,-3.234256 -0.3384,-5.753763 0.79888,-1.544864 2.67894,-3.4514338 4.1779,-4.2368208 2.35576,-1.2343072 3.0977,-1.2354497 5.4705,-0.00842 1.50982,0.7807539 3.40002,2.6859908 4.20045,4.2338608 1.30115,2.516147 1.27228,3.116943 -0.27249,5.670847 -1.50344,2.485572 -2.35893,2.868401 -6.58744,2.947879 -4.35226,0.0818 -5.04658,-0.216109 -6.65052,-2.853579 z" id="path4474" style="fill:#fe0000"/>
      <path d="M 339.9217,11.146309 C 340.83107,9.4471299 341.99317,9 345.5,9 c 3.50683,0 4.66893,0.4471299 5.5783,2.146309 1.05737,1.975712 0.96081,2.085759 -1.21481,1.384521 C 348.56357,12.111848 346.6,11.769044 345.5,11.769044 c -1.1,0 -3.06357,0.342804 -4.36349,0.761786 -2.17562,0.701238 -2.27218,0.591191 -1.21481,-1.384521 z" id="path17444" style="fill:#0000fe"/>
      <path d="m 339.9217,17.853691 c -1.05737,-1.975712 -0.96081,-2.085759 1.21481,-1.384521 1.29992,0.418982 3.26349,0.761786 4.36349,0.761786 1.1,0 3.06357,-0.342804 4.36349,-0.761786 2.17562,-0.701238 2.27218,-0.591191 1.21481,1.384521 C 350.16893,19.55287 349.00683,20 345.5,20 c -3.50683,0 -4.66893,-0.44713 -5.5783,-2.146309 z" id="path4412" style="fill:#0000fe"/>
    </g>
    <g transform="translate(-0.975,-6)" id="it9">
      <use id="use8674" x="0" y="0" width="1027" height="615" xlink:href="#indicator-background"/>
      <use id="use8676" x="0" y="0" width="1027" height="615" xlink:href="#letter-9"/>
    </g>
    <g id="ib9">
      <use transform="matrix(-1,0,0,-1,79,123)" id="use8723" x="0" y="0" width="1027" height="615" xlink:href="#it9"/>
    </g>
  <g id="9_diamond">
    <use id="use11100" x="632" y="123" width="1027" height="615" xlink:href="#cf"/>
    <use transform="translate(650.5,172)" id="use9697" x="0" y="0" width="1027" height="615" xlink:href="#dl"/>
    <use transform="translate(650.5,159)" id="use9699" x="0" y="0" width="1027" height="615" xlink:href="#dl"/>
    <use transform="translate(650.5,146)" id="use9701" x="0" y="0" width="1027" height="615" xlink:href="#dl"/>
    <use transform="translate(671.5,163)" id="use9703" x="0" y="0" width="1027" height="615" xlink:href="#dl"/>
    <use transform="translate(671.5,150)" id="use9705" x="0" y="0" width="1027" height="615" xlink:href="#dl"/>
    <use transform="translate(671.5,137)" id="use9707" x="0" y="0" width="1027" height="615" xlink:href="#dl"/>
    <use transform="translate(692.5,172)" id="use9709" x="0" y="0" width="1027" height="615" xlink:href="#dl"/>
    <use transform="translate(692.5,159)" id="use9711" x="0" y="0" width="1027" height="615" xlink:href="#dl"/>
    <use transform="translate(692.5,146)" id="use9713" x="0" y="0" width="1027" height="615" xlink:href="#dl"/>
    <use transform="matrix(-1,0,0,-1,691.5,197)" id="use9715" x="0" y="0" width="1027" height="615" xlink:href="#dl"/>
    <use transform="matrix(-1,0,0,-1,691.5,210)" id="use9717" x="0" y="0" width="1027" height="615" xlink:href="#dl"/>
    <use transform="matrix(-1,0,0,-1,691.5,223)" id="use9719" x="0" y="0" width="1027" height="615" xlink:href="#dl"/>
    <use transform="matrix(-1,0,0,-1,670.5,206)" id="use9721" x="0" y="0" width="1027" height="615" xlink:href="#dl"/>
    <use transform="matrix(-1,0,0,-1,670.5,219)" id="use9723" x="0" y="0" width="1027" height="615" xlink:href="#dl"/>
    <use transform="matrix(-1,0,0,-1,670.5,232)" id="use9725" x="0" y="0" width="1027" height="615" xlink:href="#dl"/>
    <use transform="matrix(-1,0,0,-1,649.5,197)" id="use9727" x="0" y="0" width="1027" height="615" xlink:href="#dl"/>
    <use transform="matrix(-1,0,0,-1,649.5,210)" id="use9729" x="0" y="0" width="1027" height="615" xlink:href="#dl"/>
    <use transform="matrix(-1,0,0,-1,649.5,223)" id="use9731" x="0" y="0" width="1027" height="615" xlink:href="#dl"/>
    <use id="use11102" style="fill:#df9000" x="632" y="123" width="1027" height="615" xlink:href="#it9"/>
    <use id="use11104" style="fill:#df9000" x="632" y="123" width="1027" height="615" xlink:href="#ib9"/>
  </g>
  </defs>
  <use xlink:href="#9_diamond" transform="scale(180,280)scale(0.0126582278481, 0.00813008130081)translate(-632,-123)"/>
</svg>